<?xml version="1.0" encoding="UTF-8"?>
<!--Generator: Apple Native CoreSVG 175.5-->
<!DOCTYPE svg
PUBLIC "-//W3C//DTD SVG 1.1//EN"
       "http://www.w3.org/Graphics/SVG/1.1/DTD/svg11.dtd">
<svg version="1.1" xmlns="http://www.w3.org/2000/svg" xmlns:xlink="http://www.w3.org/1999/xlink" width="3300" height="2200">
 <!--glyph: "", point size: 100.0, font version: "18.0d10e1", template writer version: "90"-->
 <g id="Notes">
  <rect height="2200" id="artboard" style="fill:white;opacity:1" width="3300" x="0" y="0"/>
  <line style="fill:none;stroke:black;opacity:1;stroke-width:0.5;" x1="263" x2="3036" y1="292" y2="292"/>
  <text style="stroke:none;fill:black;font-family:sans-serif;font-size:13;font-weight:bold;" transform="matrix(1 0 0 1 263 322)">Weight/Scale Variations</text>
  <text style="stroke:none;fill:black;font-family:sans-serif;font-size:13;text-anchor:middle;" transform="matrix(1 0 0 1 559.711 322)">Ultralight</text>
  <text style="stroke:none;fill:black;font-family:sans-serif;font-size:13;text-anchor:middle;" transform="matrix(1 0 0 1 856.422 322)">Thin</text>
  <text style="stroke:none;fill:black;font-family:sans-serif;font-size:13;text-anchor:middle;" transform="matrix(1 0 0 1 1153.13 322)">Light</text>
  <text style="stroke:none;fill:black;font-family:sans-serif;font-size:13;text-anchor:middle;" transform="matrix(1 0 0 1 1449.84 322)">Regular</text>
  <text style="stroke:none;fill:black;font-family:sans-serif;font-size:13;text-anchor:middle;" transform="matrix(1 0 0 1 1746.56 322)">Medium</text>
  <text style="stroke:none;fill:black;font-family:sans-serif;font-size:13;text-anchor:middle;" transform="matrix(1 0 0 1 2043.27 322)">Semibold</text>
  <text style="stroke:none;fill:black;font-family:sans-serif;font-size:13;text-anchor:middle;" transform="matrix(1 0 0 1 2339.98 322)">Bold</text>
  <text style="stroke:none;fill:black;font-family:sans-serif;font-size:13;text-anchor:middle;" transform="matrix(1 0 0 1 2636.69 322)">Heavy</text>
  <text style="stroke:none;fill:black;font-family:sans-serif;font-size:13;text-anchor:middle;" transform="matrix(1 0 0 1 2933.4 322)">Black</text>
  <line style="fill:none;stroke:black;opacity:1;stroke-width:0.5;" x1="263" x2="3036" y1="1903" y2="1903"/>
  <g transform="matrix(1 0 0 1 263 1933)">
   <path d="M9.24805 0.830078C13.5547 0.830078 17.1387-2.74414 17.1387-7.05078C17.1387-11.3574 13.5449-14.9316 9.23828-14.9316C4.94141-14.9316 1.36719-11.3574 1.36719-7.05078C1.36719-2.74414 4.95117 0.830078 9.24805 0.830078ZM9.24805-0.654297C5.70312-0.654297 2.87109-3.49609 2.87109-7.05078C2.87109-10.6055 5.69336-13.4473 9.23828-13.4473C12.793-13.4473 15.6445-10.6055 15.6445-7.05078C15.6445-3.49609 12.8027-0.654297 9.24805-0.654297ZM5.6543-7.05078C5.6543-6.62109 5.95703-6.32812 6.40625-6.32812L8.50586-6.32812L8.50586-4.20898C8.50586-3.76953 8.79883-3.4668 9.22852-3.4668C9.67773-3.4668 9.9707-3.76953 9.9707-4.20898L9.9707-6.32812L12.0898-6.32812C12.5293-6.32812 12.832-6.62109 12.832-7.05078C12.832-7.49023 12.5293-7.79297 12.0898-7.79297L9.9707-7.79297L9.9707-9.90234C9.9707-10.3516 9.67773-10.6543 9.22852-10.6543C8.79883-10.6543 8.50586-10.3516 8.50586-9.90234L8.50586-7.79297L6.40625-7.79297C5.95703-7.79297 5.6543-7.49023 5.6543-7.05078Z"/>
  </g>
  <g transform="matrix(1 0 0 1 281.867 1933)">
   <path d="M11.709 2.91016C17.1582 2.91016 21.6699-1.61133 21.6699-7.05078C21.6699-12.5 17.1484-17.0117 11.6992-17.0117C6.25977-17.0117 1.74805-12.5 1.74805-7.05078C1.74805-1.61133 6.26953 2.91016 11.709 2.91016ZM11.709 1.25C7.09961 1.25 3.41797-2.44141 3.41797-7.05078C3.41797-11.6602 7.08984-15.3516 11.6992-15.3516C16.3086-15.3516 20.0098-11.6602 20.0098-7.05078C20.0098-2.44141 16.3184 1.25 11.709 1.25ZM7.17773-7.05078C7.17773-6.57227 7.50977-6.25 8.00781-6.25L10.8789-6.25L10.8789-3.36914C10.8789-2.88086 11.2109-2.53906 11.6895-2.53906C12.1777-2.53906 12.5195-2.87109 12.5195-3.36914L12.5195-6.25L15.4004-6.25C15.8887-6.25 16.2305-6.57227 16.2305-7.05078C16.2305-7.53906 15.8887-7.88086 15.4004-7.88086L12.5195-7.88086L12.5195-10.752C12.5195-11.25 12.1777-11.5918 11.6895-11.5918C11.2109-11.5918 10.8789-11.25 10.8789-10.752L10.8789-7.88086L8.00781-7.88086C7.50977-7.88086 7.17773-7.53906 7.17773-7.05078Z"/>
  </g>
  <g transform="matrix(1 0 0 1 305.646 1933)">
   <path d="M14.9707 5.66406C21.9336 5.66406 27.6953-0.0976562 27.6953-7.05078C27.6953-14.0137 21.9238-19.7754 14.9609-19.7754C8.00781-19.7754 2.25586-14.0137 2.25586-7.05078C2.25586-0.0976562 8.01758 5.66406 14.9707 5.66406ZM14.9707 3.84766C8.93555 3.84766 4.08203-1.01562 4.08203-7.05078C4.08203-13.0957 8.92578-17.9492 14.9609-17.9492C21.0059-17.9492 25.8691-13.0957 25.8691-7.05078C25.8691-1.01562 21.0156 3.84766 14.9707 3.84766ZM9.19922-7.05078C9.19922-6.5332 9.57031-6.17188 10.1172-6.17188L14.0625-6.17188L14.0625-2.2168C14.0625-1.67969 14.4336-1.29883 14.9512-1.29883C15.4883-1.29883 15.8594-1.66992 15.8594-2.2168L15.8594-6.17188L19.8145-6.17188C20.3516-6.17188 20.7324-6.5332 20.7324-7.05078C20.7324-7.59766 20.3613-7.96875 19.8145-7.96875L15.8594-7.96875L15.8594-11.9141C15.8594-12.4609 15.4883-12.8418 14.9512-12.8418C14.4336-12.8418 14.0625-12.4609 14.0625-11.9141L14.0625-7.96875L10.1172-7.96875C9.57031-7.96875 9.19922-7.59766 9.19922-7.05078Z"/>
  </g>
  <text style="stroke:none;fill:black;font-family:sans-serif;font-size:13;font-weight:bold;" transform="matrix(1 0 0 1 263 1953)">Design Variations</text>
  <text style="stroke:none;fill:black;font-family:sans-serif;font-size:13;" transform="matrix(1 0 0 1 263 1971)">Symbols are supported in up to nine weights and three scales.</text>
  <text style="stroke:none;fill:black;font-family:sans-serif;font-size:13;" transform="matrix(1 0 0 1 263 1989)">For optimal layout with text and other symbols, vertically align</text>
  <text style="stroke:none;fill:black;font-family:sans-serif;font-size:13;" transform="matrix(1 0 0 1 263 2007)">symbols with the adjacent text.</text>
  <line style="fill:none;stroke:#00AEEF;stroke-width:0.5;opacity:1.0;" x1="776" x2="776" y1="1919" y2="1933"/>
  <g transform="matrix(1 0 0 1 776 1933)">
   <path d="M3.31055 0.15625C3.82812 0.15625 4.08203-0.0390625 4.26758-0.585938L5.52734-4.0332L11.2891-4.0332L12.5488-0.585938C12.7344-0.0390625 12.9883 0.15625 13.4961 0.15625C14.0137 0.15625 14.3457-0.15625 14.3457-0.644531C14.3457-0.810547 14.3164-0.966797 14.2383-1.17188L9.6582-13.3691C9.43359-13.9648 9.0332-14.2676 8.4082-14.2676C7.80273-14.2676 7.39258-13.9746 7.17773-13.3789L2.59766-1.16211C2.51953-0.957031 2.49023-0.800781 2.49023-0.634766C2.49023-0.146484 2.80273 0.15625 3.31055 0.15625ZM6.00586-5.51758L8.37891-12.0898L8.42773-12.0898L10.8008-5.51758Z"/>
  </g>
  <line style="fill:none;stroke:#00AEEF;stroke-width:0.5;opacity:1.0;" x1="793.197" x2="793.197" y1="1919" y2="1933"/>
  <text style="stroke:none;fill:black;font-family:sans-serif;font-size:13;font-weight:bold;" transform="matrix(1 0 0 1 776 1953)">Margins</text>
  <text style="stroke:none;fill:black;font-family:sans-serif;font-size:13;" transform="matrix(1 0 0 1 776 1971)">Leading and trailing margins on the left and right side of each symbol</text>
  <text style="stroke:none;fill:black;font-family:sans-serif;font-size:13;" transform="matrix(1 0 0 1 776 1989)">can be adjusted by modifying the x-location of the margin guidelines.</text>
  <text style="stroke:none;fill:black;font-family:sans-serif;font-size:13;" transform="matrix(1 0 0 1 776 2007)">Modifications are automatically applied proportionally to all</text>
  <text style="stroke:none;fill:black;font-family:sans-serif;font-size:13;" transform="matrix(1 0 0 1 776 2025)">scales and weights.</text>
  <g transform="matrix(1 0 0 1 1289 1933)">
   <path d="M2.8418 1.86523L4.54102 3.57422C5.40039 4.44336 6.38672 4.38477 7.31445 3.35938L18.0078-8.42773L17.041-9.4043L6.42578 2.27539C6.07422 2.67578 5.74219 2.77344 5.27344 2.30469L4.10156 1.14258C3.63281 0.683594 3.74023 0.341797 4.14062-0.0195312L15.6152-10.8203L14.6387-11.7871L3.04688-0.898438C2.06055 0.0195312 1.98242 0.996094 2.8418 1.86523ZM9.25781-16.3281C8.83789-15.918 8.80859-15.3418 9.04297-14.9512C9.27734-14.5898 9.73633-14.3555 10.3809-14.5215C11.8457-14.8633 13.3691-14.9219 14.7949-13.9844L14.209-12.5293C13.8672-11.6992 14.043-11.1133 14.5801-10.5664L16.875-8.25195C17.3633-7.76367 17.7734-7.74414 18.3398-7.8418L19.4043-8.03711L20.0684-7.36328L20.0293-6.80664C19.9902-6.30859 20.1172-5.92773 20.6055-5.44922L21.3672-4.70703C21.8457-4.22852 22.4609-4.19922 22.9297-4.66797L25.8398-7.58789C26.3086-8.05664 26.2891-8.65234 25.8105-9.13086L25.0391-9.89258C24.5605-10.3711 24.1895-10.5273 23.7109-10.4883L23.1348-10.4395L22.4902-11.0742L22.7344-12.1973C22.8613-12.7637 22.7051-13.2031 22.1191-13.7891L19.9219-15.9766C16.582-19.2969 12.1484-19.2188 9.25781-16.3281ZM10.752-15.957C13.1836-17.7344 16.4746-17.4316 18.7012-15.2051L21.1328-12.793C21.3672-12.5586 21.4062-12.373 21.3379-12.0312L21.0156-10.5469L22.5195-9.0625L23.5059-9.12109C23.7598-9.13086 23.8379-9.11133 24.0332-8.91602L24.6094-8.33984L22.168-5.89844L21.5918-6.47461C21.3965-6.66992 21.3672-6.74805 21.377-7.01172L21.4453-7.98828L19.9512-9.47266L18.4277-9.21875C18.1055-9.15039 17.959-9.17969 17.7148-9.41406L15.7129-11.416C15.459-11.6504 15.4297-11.8164 15.5859-12.1875L16.4648-14.2773C14.9023-15.7324 12.8711-16.3574 10.8398-15.7617C10.6836-15.7227 10.625-15.8496 10.752-15.957Z"/>
  </g>
  <text style="stroke:none;fill:black;font-family:sans-serif;font-size:13;font-weight:bold;" transform="matrix(1 0 0 1 1289 1953)">Exporting</text>
  <text style="stroke:none;fill:black;font-family:sans-serif;font-size:13;" transform="matrix(1 0 0 1 1289 1971)">Symbols should be outlined when exporting to ensure the</text>
  <text style="stroke:none;fill:black;font-family:sans-serif;font-size:13;" transform="matrix(1 0 0 1 1289 1989)">design is preserved when submitting to Xcode.</text>
  <text id="template-version" style="stroke:none;fill:black;font-family:sans-serif;font-size:13;text-anchor:end;" transform="matrix(1 0 0 1 3036 1933)">Template v.2.0</text>
  <text style="stroke:none;fill:black;font-family:sans-serif;font-size:13;text-anchor:end;" transform="matrix(1 0 0 1 3036 1951)">Requires Xcode 12 or greater</text>
  <text id="descriptive-name" style="stroke:none;fill:black;font-family:sans-serif;font-size:13;text-anchor:end;" transform="matrix(1 0 0 1 3036 1969)">Generated from custom.heart.rectangle</text>
  <text style="stroke:none;fill:black;font-family:sans-serif;font-size:13;text-anchor:end;" transform="matrix(1 0 0 1 3036 1987)">Typeset at 100 points</text>
  <text style="stroke:none;fill:black;font-family:sans-serif;font-size:13;" transform="matrix(1 0 0 1 263 726)">Small</text>
  <text style="stroke:none;fill:black;font-family:sans-serif;font-size:13;" transform="matrix(1 0 0 1 263 1156)">Medium</text>
  <text style="stroke:none;fill:black;font-family:sans-serif;font-size:13;" transform="matrix(1 0 0 1 263 1586)">Large</text>
 </g>
 <g id="Guides">
  <g id="H-reference" style="fill:#27AAE1;stroke:none;" transform="matrix(1 0 0 1 339 696)">
   <path d="M0.993654 0L3.63775 0L29.3281-67.1323L30.0303-67.1323L30.0303-70.459L28.1226-70.459ZM11.6885-24.4799L46.9815-24.4799L46.2315-26.7285L12.4385-26.7285ZM55.1196 0L57.7637 0L30.6382-70.459L29.4326-70.459L29.4326-67.1323Z"/>
  </g>
  <line id="Baseline-S" style="fill:none;stroke:#27AAE1;opacity:1;stroke-width:0.5;" x1="263" x2="3036" y1="696" y2="696"/>
  <line id="Capline-S" style="fill:none;stroke:#27AAE1;opacity:1;stroke-width:0.5;" x1="263" x2="3036" y1="625.541" y2="625.541"/>
  <g id="H-reference" style="fill:#27AAE1;stroke:none;" transform="matrix(1 0 0 1 339 1126)">
   <path d="M0.993654 0L3.63775 0L29.3281-67.1323L30.0303-67.1323L30.0303-70.459L28.1226-70.459ZM11.6885-24.4799L46.9815-24.4799L46.2315-26.7285L12.4385-26.7285ZM55.1196 0L57.7637 0L30.6382-70.459L29.4326-70.459L29.4326-67.1323Z"/>
  </g>
  <line id="Baseline-M" style="fill:none;stroke:#27AAE1;opacity:1;stroke-width:0.5;" x1="263" x2="3036" y1="1126" y2="1126"/>
  <line id="Capline-M" style="fill:none;stroke:#27AAE1;opacity:1;stroke-width:0.5;" x1="263" x2="3036" y1="1055.54" y2="1055.54"/>
  <g id="H-reference" style="fill:#27AAE1;stroke:none;" transform="matrix(1 0 0 1 339 1556)">
   <path d="M0.993654 0L3.63775 0L29.3281-67.1323L30.0303-67.1323L30.0303-70.459L28.1226-70.459ZM11.6885-24.4799L46.9815-24.4799L46.2315-26.7285L12.4385-26.7285ZM55.1196 0L57.7637 0L30.6382-70.459L29.4326-70.459L29.4326-67.1323Z"/>
  </g>
  <line id="Baseline-L" style="fill:none;stroke:#27AAE1;opacity:1;stroke-width:0.5;" x1="263" x2="3036" y1="1556" y2="1556"/>
  <line id="Capline-L" style="fill:none;stroke:#27AAE1;opacity:1;stroke-width:0.5;" x1="263" x2="3036" y1="1485.54" y2="1485.54"/>
  <line id="left-margin" style="fill:none;stroke:#00AEEF;stroke-width:0.5;opacity:1.0;" x1="1379.84" x2="1379.84" y1="1030.78" y2="1150.12"/>
  <line id="right-margin" style="fill:none;stroke:#00AEEF;stroke-width:0.5;opacity:1.0;" x1="1519.85" x2="1519.85" y1="1030.78" y2="1150.12"/>
 </g>
 <g id="Symbols">
  <g id="Black-L" transform="matrix(1 0 0 1 2841.56 1556)">
   <path d="M39.8556 26.4205L143.831 26.4205C158.995 26.4205 167.603 17.8105 167.603 2.71124L167.603-73.0916C167.603-88.1909 158.995-96.8007 143.831-96.8007L39.8556-96.8007C24.7123-96.8007 16.084-88.1933 16.084-73.0916L16.084 2.71124C16.084 17.8129 24.7123 26.4205 39.8556 26.4205ZM42.5864 6.41861C38.2704 6.41861 36.065 4.48844 36.065-0.12358L36.065-70.2568C36.065-74.8896 38.2704-76.799 42.5864-76.799L141.1-76.799C145.411-76.799 147.622-74.8896 147.622-70.2568L147.622-0.12358C147.622 4.48844 145.411 6.41861 141.1 6.41861ZM77.7479-61.0756C68.2637-61.0756 60.6031-53.6576 60.6031-42.508C60.6031-23.4082 82.726-9.54264 88.0518-6.36178C89.1705-5.7805 90.746-4.88215 91.9156-4.88215C93.0654-4.88215 94.541-5.7793 95.6973-6.36178C101.052-9.51815 123.125-23.4082 123.125-42.508C123.125-53.6576 115.464-61.0756 106-61.0756C99.1511-61.0756 94.363-57.0538 91.8739-52.7734C89.3652-57.0538 84.6188-61.0756 77.7479-61.0756Z"/>
  </g>
  <g id="Heavy-L" transform="matrix(1 0 0 1 2545.23 1556)">
   <path d="M38.8315 25.505L144.087 25.505C158.73 25.505 166.835 17.3891 166.835 2.84801L166.835-73.2372C166.835-87.7783 158.73-95.8941 144.087-95.8941L38.8315-95.8941C24.2188-95.8941 16.084-87.7895 16.084-73.2372L16.084 2.84801C16.084 17.4003 24.2188 25.505 38.8315 25.505ZM40.9557 7.97435C36.1179 7.97435 33.5844 5.67963 33.5844 0.572841L33.5844-70.962C33.5844-76.099 36.1179-78.3635 40.9557-78.3635L141.963-78.3635C146.778-78.3635 149.334-76.099 149.334-70.962L149.334 0.572841C149.334 5.67963 146.778 7.97435 141.963 7.97435ZM77.1413-61.5565C67.3803-61.5565 59.7103-53.9863 59.7103-42.8483C59.7103-24.3146 80.8091-10.0967 87.8737-5.76748C88.9659-5.18563 90.4879-4.30445 91.562-4.30445C92.6114-4.30445 94.0286-5.18001 95.1352-5.76748C102.175-10.1439 123.268-24.3146 123.268-42.8483C123.268-53.9863 115.598-61.5565 105.862-61.5565C99.0589-61.5565 94.1247-57.5589 91.5016-52.9548C88.8539-57.5589 83.9801-61.5565 77.1413-61.5565Z"/>
  </g>
  <g id="Bold-L" transform="matrix(1 0 0 1 2249.01 1556)">
   <path d="M37.5412 24.3604L144.394 24.3604C158.347 24.3604 165.852 16.8294 165.852 3.01707L165.852-73.4215C165.852-87.2337 158.347-94.7648 144.394-94.7648L37.5412-94.7648C23.6265-94.7648 16.084-87.2602 16.084-73.4215L16.084 3.01707C16.084 16.8558 23.6265 24.3604 37.5412 24.3604ZM38.987 9.88063C33.4665 9.88063 30.5258 7.13261 30.5258 1.38133L30.5258-71.7858C30.5258-77.575 33.4665-80.285 38.987-80.285L142.949-80.285C148.416-80.285 151.41-77.575 151.41-71.7858L151.41 1.38133C151.41 7.13261 148.416 9.88063 142.949 9.88063ZM76.3957-62.1184C66.3413-62.1184 58.6634-54.3861 58.6634-43.2933C58.6634-25.3098 78.7478-10.6763 87.6583-5.12676C88.7048-4.5523 90.1429-3.70907 91.0942-3.70907C92.0207-3.70907 93.3536-4.53907 94.3913-5.12676C103.2-10.8306 123.348-25.3098 123.348-43.2933C123.348-54.3861 115.67-62.1184 105.641-62.1184C98.8915-62.1184 93.7804-58.1292 91.0182-53.1926C88.2312-58.1292 83.1961-62.1184 76.3957-62.1184Z"/>
  </g>
  <g id="Semibold-L" transform="matrix(1 0 0 1 1952.64 1556)">
   <path d="M36.6518 23.5713L144.607 23.5713C158.083 23.5713 165.175 16.4435 165.175 3.13362L165.175-73.5485C165.175-86.8583 158.083-93.9862 144.607-93.9862L36.6518-93.9862C23.2182-93.9862 16.084-86.8953 16.084-73.5485L16.084 3.13362C16.084 16.4804 23.2182 23.5713 36.6518 23.5713ZM37.6298 11.1948C31.6386 11.1948 28.4171 8.13428 28.4171 1.9387L28.4171-72.3536C28.4171-78.5925 31.6386-81.6097 37.6298-81.6097L143.628-81.6097C149.546-81.6097 152.841-78.5925 152.841-72.3536L152.841 1.9387C152.841 8.13428 149.546 11.1948 143.628 11.1948ZM75.8818-62.5058C65.625-62.5058 57.9417-54.6617 57.9417-43.6C57.9417-25.9959 77.3267-11.0758 87.5099-4.68505C88.5249-4.11568 89.9051-3.29861 90.7717-3.29861C91.6134-3.29861 92.8883-4.09721 93.8785-4.68505C103.908-11.3039 123.403-25.9959 123.403-43.6C123.403-54.6617 115.72-62.5058 105.488-62.5058C98.7761-62.5058 93.5431-58.5224 90.685-53.3565C87.8019-58.5224 82.6557-62.5058 75.8818-62.5058Z"/>
  </g>
  <g id="Medium-L" transform="matrix(1 0 0 1 1656.18 1556)">
   <path d="M35.9773 22.973L144.767 22.973C157.883 22.973 164.661 16.1509 164.661 3.22199L164.661-73.6449C164.661-86.5737 157.883-93.3959 144.767-93.3959L35.9773-93.3959C22.9086-93.3959 16.084-86.6186 16.084-73.6449L16.084 3.22199C16.084 16.1958 22.9086 22.973 35.9773 22.973ZM36.6008 12.1913C30.2527 12.1913 26.8183 8.89379 26.8183 2.36132L26.8183-72.7842C26.8183-79.3641 30.2527-82.6141 36.6008-82.6141L144.144-82.6141C150.402-82.6141 153.926-79.3641 153.926-72.7842L153.926 2.36132C153.926 8.89379 150.402 12.1913 144.144 12.1913ZM75.4921-62.7996C65.0818-62.7996 57.3945-54.8707 57.3945-43.8326C57.3945-26.5161 76.2492-11.3788 87.3973-4.35013C88.3884-3.78462 89.7247-2.98739 90.5271-2.98739C91.3046-2.98739 92.5355-3.76217 93.4896-4.35013C104.444-11.6629 123.445-26.5161 123.445-43.8326C123.445-54.8707 115.758-62.7996 105.372-62.7996C98.6886-62.7996 93.3631-58.8206 90.4323-53.4808C87.4764-58.8206 82.2459-62.7996 75.4921-62.7996Z"/>
  </g>
  <g id="Regular-L" transform="matrix(1 0 0 1 1359.81 1556)">
   <path d="M35.0976 22.1926L144.977 22.1926C157.623 22.1926 163.991 15.7692 163.991 3.33725L163.991-73.7705C163.991-86.2024 157.623-92.6259 144.977-92.6259L35.0976-92.6259C22.5048-92.6259 16.084-86.2577 16.084-73.7705L16.084 3.33725C16.084 15.8245 22.5048 22.1926 35.0976 22.1926ZM35.2585 13.491C28.4449 13.491 24.7329 9.88445 24.7329 2.91256L24.7329-73.3458C24.7329-80.3704 28.4449-83.9242 35.2585-83.9242L144.816-83.9242C151.519-83.9242 155.342-80.3704 155.342-73.3458L155.342 2.91256C155.342 9.88445 151.519 13.491 144.816 13.491ZM74.9838-63.1828C64.3734-63.1828 56.6807-55.1433 56.6807-44.136C56.6807-27.1947 74.8437-11.774 87.2505-3.91328C88.2105-3.35281 89.4895-2.58145 90.2082-2.58145C90.9018-2.58145 92.0754-3.32516 92.9824-3.91328C105.143-12.131 123.5-27.1947 123.5-44.136C123.5-55.1433 115.807-63.1828 105.222-63.1828C98.5744-63.1828 93.1284-59.2095 90.1027-53.6429C87.0518-59.2095 81.7113-63.1828 74.9838-63.1828Z"/>
  </g>
  <g id="Light-L" transform="matrix(1 0 0 1 1063.53 1556)">
   <path d="M34.067 21.3338L145.13 21.3338C157.012 21.3338 163.113 15.1394 163.113 3.45178L163.113-73.9232C163.113-85.6108 157.012-91.8052 145.13-91.8052L34.067-91.8052C22.2186-91.8052 16.084-85.7042 16.084-73.9232L16.084 3.45178C16.084 15.2329 22.2186 21.3338 34.067 21.3338ZM34.2278 14.6743C26.7081 14.6743 22.7098 10.7433 22.7098 3.1225L22.7098-73.5939C22.7098-81.2484 26.7081-85.1456 34.2278-85.1456L144.969-85.1456C152.302-85.1456 156.487-81.2484 156.487-73.5939L156.487 3.1225C156.487 10.7433 152.302 14.6743 144.969 14.6743ZM74.5066-63.3545C64.0108-63.3545 56.3372-55.3723 56.3372-44.594C56.3372-27.0611 75.4354-11.4877 87.136-4.08501C87.9814-3.58182 89.0887-2.94407 89.6928-2.94407C90.3101-2.94407 91.3501-3.53509 92.1618-4.08501C103.502-12.0356 122.927-27.0611 122.927-44.594C122.927-55.3723 115.253-63.3545 104.744-63.3545C98.1164-63.3545 92.575-59.2476 89.6256-53.891C86.6891-59.2476 81.2151-63.3545 74.5066-63.3545Z"/>
  </g>
  <g id="Thin-L" transform="matrix(1 0 0 1 767.405 1556)">
   <path d="M32.704 20.1979L145.332 20.1979C156.204 20.1979 161.952 14.3064 161.952 3.60326L161.952-74.1252C161.952-84.8283 156.204-90.7198 145.332-90.7198L32.704-90.7198C21.84-90.7198 16.084-84.9722 16.084-74.1252L16.084 3.60326C16.084 14.4504 21.84 20.1979 32.704 20.1979ZM32.8647 16.2393C24.4111 16.2393 20.0341 11.8792 20.0341 3.40015L20.0341-73.9221C20.0341-82.4095 24.4111-86.7611 32.8647-86.7611L145.171-86.7611C153.337-86.7611 158.001-82.4095 158.001-73.9221L158.001 3.40015C158.001 11.8792 153.337 16.2393 145.171 16.2393ZM73.8755-63.5817C63.5312-63.5817 55.8828-55.6753 55.8828-45.1998C55.8828-26.8844 76.2179-11.1091 86.9845-4.31214C87.6785-3.88472 88.5587-3.42367 89.0113-3.42367C89.5277-3.42367 90.3909-3.81275 91.0764-4.31214C101.331-11.9093 122.17-26.8844 122.17-45.1998C122.17-55.6753 114.521-63.5817 104.113-63.5817C97.5106-63.5817 91.843-59.2981 88.9945-54.2192C86.2095-59.2981 80.5589-63.5817 73.8755-63.5817Z"/>
  </g>
  <g id="Ultralight-L" transform="matrix(1 0 0 1 470.991 1556)">
   <path d="M32.0058 19.6161L145.435 19.6161C155.79 19.6161 161.357 13.8798 161.357 3.68084L161.357-74.2286C161.357-84.4275 155.79-90.1639 145.435-90.1639L32.0058-90.1639C21.6461-90.1639 16.084-84.5973 16.084-74.2286L16.084 3.68084C16.084 14.0496 21.6461 19.6161 32.0058 19.6161ZM32.1666 17.0408C23.2346 17.0408 18.6637 12.461 18.6637 3.54237L18.6637-74.0901C18.6637-83.0042 23.2346-87.5885 32.1666-87.5885L145.274-87.5885C153.867-87.5885 158.777-83.0042 158.777-74.0901L158.777 3.54237C158.777 12.461 153.867 17.0408 145.274 17.0408ZM73.5523-63.6981C63.2855-63.6981 55.6501-55.8305 55.6501-45.5101C55.6501-26.7939 76.6186-10.9152 86.9069-4.42847C87.5233-4.03986 88.2872-3.66932 88.6622-3.66932C89.1269-3.66932 89.8996-3.95496 90.5205-4.42847C100.219-11.8447 121.782-26.7939 121.782-45.5101C121.782-55.8305 114.146-63.6981 103.79-63.6981C97.2003-63.6981 91.4681-59.3239 88.6713-54.3872C85.9639-59.3239 80.2228-63.6981 73.5523-63.6981Z"/>
  </g>
  <g id="Black-M" transform="matrix(1 0 0 1 2861.98 1126)">
   <path d="M31.6184 13.2037L111.233 13.2037C123.325 13.2037 130.39 6.13959 130.39-5.93735L130.39-64.4585C130.39-76.5354 123.325-83.5994 111.233-83.5994L31.6184-83.5994C19.5311-83.5994 12.4609-76.5349 12.4609-64.4585L12.4609-5.93735C12.4609 6.13902 19.5311 13.2037 31.6184 13.2037ZM34.2553-4.13981C31.2643-4.13981 29.7989-5.36585 29.7989-8.60167L29.7989-61.7942C29.7989-65.0355 31.2643-66.2561 34.2553-66.2561L108.596-66.2561C111.588-66.2561 113.052-65.0355 113.052-61.7942L113.052-8.60167C113.052-5.36585 111.588-4.13981 108.596-4.13981ZM60.6913-54.8637C53.5968-54.8637 47.6725-49.2552 47.6725-40.6382C47.6725-25.274 65.8189-14.814 68.355-13.3986C69.229-12.9565 70.4723-12.2639 71.4449-12.2639C72.4116-12.2639 73.587-12.9568 74.5126-13.3986C77.1022-14.7592 95.1896-25.274 95.1896-40.6382C95.1896-49.2552 89.2651-54.8637 82.1765-54.8637C76.8337-54.8637 73.2369-51.7089 71.4339-48.6993C69.6252-51.7089 66.0393-54.8637 60.6913-54.8637Z"/>
  </g>
  <g id="Heavy-M" transform="matrix(1 0 0 1 2565.6 1126)">
   <path d="M30.7123 12.3879L111.469 12.3879C123.122 12.3879 129.72 5.78572 129.72-5.81422L129.72-64.5868C129.72-76.1867 123.122-82.7888 111.469-82.7888L30.7123-82.7888C19.075-82.7888 12.4609-76.1912 12.4609-64.5868L12.4609-5.81422C12.4609 5.79026 19.075 12.3879 30.7123 12.3879ZM32.7563-2.72812C29.3203-2.72812 27.5606-4.2806 27.5606-7.94023L27.5606-62.4608C27.5606-66.1368 29.3203-67.6729 32.7563-67.6729L109.425-67.6729C112.852-67.6729 114.62-66.1368 114.62-62.4608L114.62-7.94023C114.62-4.2806 112.852-2.72812 109.425-2.72812ZM60.1423-55.3179C52.7667-55.3179 46.8314-49.5554 46.8314-40.9286C46.8314-26.1724 63.8905-15.382 68.1914-12.8018C69.05-12.3539 70.2569-11.6657 71.1468-11.6657C72.0224-11.6657 73.153-12.3516 74.0388-12.8018C78.351-15.3798 95.3824-26.1724 95.3824-40.9286C95.3824-49.5554 89.447-55.3179 82.0857-55.3179C76.7858-55.3179 73.0549-52.1991 71.114-48.8538C69.1589-52.1991 65.4608-55.3179 60.1423-55.3179Z"/>
  </g>
  <g id="Bold-M" transform="matrix(1 0 0 1 2269.26 1126)">
   <path d="M29.6986 11.4754L111.733 11.4754C122.895 11.4754 128.971 5.38986 128.971-5.67647L128.971-64.7302C128.971-75.7965 122.895-81.8821 111.733-81.8821L29.6986-81.8821C18.5648-81.8821 12.4609-75.8068 12.4609-64.7302L12.4609-5.67647C12.4609 5.40013 18.5648 11.4754 29.6986 11.4754ZM31.0794-1.14895C27.1457-1.14895 25.0567-3.0666 25.0567-7.20033L25.0567-63.2064C25.0567-67.3687 27.1457-69.2577 31.0794-69.2577L110.352-69.2577C114.265-69.2577 116.375-67.3687 116.375-63.2064L116.375-7.20033C116.375-3.0666 114.265-1.14895 110.352-1.14895ZM59.5281-55.826C51.8381-55.826 45.8906-49.8912 45.8906-41.2535C45.8906-27.1774 61.7332-16.0174 68.0084-12.1342C68.8499-11.6797 70.016-10.9965 70.8133-10.9965C71.5871-10.9965 72.6675-11.6746 73.5088-12.1342C79.7481-16.0739 95.5981-27.1774 95.5981-41.2535C95.5981-49.8912 89.6505-55.826 81.984-55.826C76.7322-55.826 72.8514-52.7475 70.7561-49.0266C68.6372-52.7475 64.8136-55.826 59.5281-55.826Z"/>
  </g>
  <g id="Semibold-M" transform="matrix(1 0 0 1 1972.81 1126)">
   <path d="M28.9999 10.8463L111.915 10.8463C122.739 10.8463 128.454 5.11696 128.454-5.58151L128.454-64.8291C128.454-75.5276 122.739-81.2569 111.915-81.2569L28.9999-81.2569C18.2131-81.2569 12.4609-75.5418 12.4609-64.8291L12.4609-5.58151C12.4609 5.13117 18.2131 10.8463 28.9999 10.8463ZM29.9234-0.0602805C25.6465-0.0602805 23.3305-2.22967 23.3305-6.69024L23.3305-63.7204C23.3305-68.218 25.6465-70.3503 29.9234-70.3503L110.991-70.3503C115.24-70.3503 117.584-68.218 117.584-63.7204L117.584-6.69024C117.584-2.22967 115.24-0.0602805 110.991-0.0602805ZM59.1047-56.1763C51.1979-56.1763 45.242-50.1227 45.242-41.4775C45.242-27.8703 60.246-16.4554 67.8823-11.6739C68.7119-11.2149 69.8499-10.5352 70.5834-10.5352C71.287-10.5352 72.3328-11.2078 73.1434-11.6739C80.7112-16.5525 95.7467-27.8703 95.7467-41.4775C95.7467-50.1227 89.7907-56.1763 81.9139-56.1763C76.6953-56.1763 72.711-53.1256 70.5094-49.1457C68.2776-53.1256 64.3675-56.1763 59.1047-56.1763Z"/>
  </g>
  <g id="Medium-M" transform="matrix(1 0 0 1 1676.29 1126)">
   <path d="M28.47 10.3693L112.053 10.3693C122.62 10.3693 128.062 4.91004 128.062-5.50951L128.062-64.9041C128.062-75.3236 122.62-80.7829 112.053-80.7829L28.47-80.7829C17.9464-80.7829 12.4609-75.3408 12.4609-64.9041L12.4609-5.50951C12.4609 4.92724 17.9464 10.3693 28.47 10.3693ZM29.0468 0.765196C24.5098 0.765196 22.0216-1.59508 22.0216-6.30347L22.0216-64.1102C22.0216-68.8619 24.5098-71.1788 29.0468-71.1788L111.476-71.1788C115.979-71.1788 118.501-68.8619 118.501-64.1102L118.501-6.30347C118.501-1.59508 115.979 0.765196 111.476 0.765196ZM58.7837-56.4419C50.7125-56.4419 44.7502-50.2982 44.7502-41.6473C44.7502-28.3956 59.1183-16.7875 67.7867-11.325C68.6073-10.8625 69.724-10.1854 70.4091-10.1854C71.0594-10.1854 72.079-10.8539 72.8664-11.325C81.4415-16.9153 95.8595-28.3956 95.8595-41.6473C95.8595-50.2982 89.8971-56.4419 81.8608-56.4419C76.6673-56.4419 72.6046-53.4122 70.3223-49.2361C68.005-53.4122 64.0292-56.4419 58.7837-56.4419Z"/>
  </g>
  <g id="Regular-M" transform="matrix(1 0 0 1 1379.84 1126)">
   <path d="M27.7789 9.74712L112.233 9.74712C122.465 9.74712 127.551 4.64014 127.551-5.4156L127.551-65.002C127.551-75.0576 122.465-80.1647 112.233-80.1647L27.7789-80.1647C17.5986-80.1647 12.4609-75.0787 12.4609-65.002L12.4609-5.4156C12.4609 4.66124 17.5986 9.74712 27.7789 9.74712ZM27.9035 1.8419C23.0271 1.8419 20.3144-0.767349 20.3144-5.79899L20.3144-64.6186C20.3144-69.7019 23.0271-72.2594 27.9035-72.2594L112.108-72.2594C116.942-72.2594 119.697-69.7019 119.697-64.6186L119.697-5.79899C119.697-0.767349 116.942 1.8419 112.108 1.8419ZM58.365-56.7883C50.0794-56.7883 44.1087-50.5271 44.1087-41.8688C44.1087-29.0808 57.6474-17.2208 67.6619-10.8698C68.4709-10.4029 69.5597-9.72915 70.1817-9.72915C70.7626-9.72915 71.7479-10.3923 72.5051-10.8698C82.394-17.3886 96.0065-29.0808 96.0065-41.8688C96.0065-50.5271 90.0358-56.7883 81.7915-56.7883C76.6308-56.7883 72.4659-53.7861 70.0783-49.3539C67.6493-53.7861 63.588-56.7883 58.365-56.7883Z"/>
  </g>
  <g id="Light-M" transform="matrix(1 0 0 1 1083.52 1126)">
   <path d="M26.8549 8.97713L112.37 8.97713C121.917 8.97713 126.764 4.07548 126.764-5.31291L126.764-65.1389C126.764-74.5272 121.917-79.4289 112.37-79.4289L26.8549-79.4289C17.3419-79.4289 12.4609-74.5825 12.4609-65.1389L12.4609-5.31291C12.4609 4.1308 17.3419 8.97713 26.8549 8.97713ZM26.9795 2.90278C21.47 2.90278 18.5006 0.00264336 18.5006-5.61077L18.5006-64.841C18.5006-70.489 21.47-73.3545 26.9795-73.3545L112.245-73.3545C117.644-73.3545 120.724-70.489 120.724-64.841L120.724-5.61077C120.724 0.00264336 117.644 2.90278 112.245 2.90278ZM57.9372-56.9423C49.7543-56.9423 43.8007-50.7325 43.8007-42.2795C43.8007-28.9611 58.1779-16.9641 67.5592-11.0237C68.2655-10.6082 69.2004-10.0543 69.7197-10.0543C70.2321-10.0543 71.0977-10.5806 71.7693-11.0237C80.9225-17.3031 95.4932-28.9611 95.4932-42.2795C95.4932-50.7325 89.5396-56.9423 81.3637-56.9423C76.2201-56.9423 71.9697-53.8204 69.6505-49.5763C67.3242-53.8204 63.1431-56.9423 57.9372-56.9423Z"/>
  </g>
  <g id="Thin-M" transform="matrix(1 0 0 1 787.331 1126)">
   <path d="M25.6329 7.95875L112.551 7.95875C121.193 7.95875 125.723 3.32867 125.723-5.17711L125.723-65.3199C125.723-73.8256 121.193-78.4558 112.551-78.4558L25.6329-78.4558C17.0025-78.4558 12.4609-73.9262 12.4609-65.3199L12.4609-5.17711C12.4609 3.42925 17.0025 7.95875 25.6329 7.95875ZM25.7574 4.30587C19.4106 4.30587 16.1018 1.02102 16.1018-5.36184L16.1018-65.1352C16.1018-71.53 19.4106-74.8028 25.7574-74.8028L112.426-74.8028C118.572-74.8028 122.082-71.53 122.082-65.1352L122.082-5.36184C122.082 1.02102 118.572 4.30587 112.426 4.30587ZM57.3714-57.146C49.3243-57.146 43.3933-51.0041 43.3933-42.8226C43.3933-28.8026 58.8794-16.6247 67.4234-11.2274C67.9939-10.8798 68.7251-10.4843 69.1087-10.4843C69.5306-10.4843 70.2377-10.8295 70.7962-11.2274C78.9762-17.1899 94.8143-28.8026 94.8143-42.8226C94.8143-51.0041 88.8833-57.146 80.798-57.146C75.677-57.146 71.3134-53.8656 69.0847-49.8705C66.8942-53.8656 62.5547-57.146 57.3714-57.146Z"/>
  </g>
  <g id="Ultralight-M" transform="matrix(1 0 0 1 490.886 1126)">
   <path d="M25.0069 7.43714L112.644 7.43714C120.822 7.43714 125.189 2.94616 125.189-5.10755L125.189-65.4126C125.189-73.4663 120.822-77.9574 112.644-77.9574L25.0069-77.9574C16.8286-77.9574 12.4609-73.59 12.4609-65.4126L12.4609-5.10755C12.4609 3.06993 16.8286 7.43714 25.0069 7.43714ZM25.1315 5.02453C18.3558 5.02453 14.8731 1.54263 14.8731-5.23434L14.8731-65.2859C14.8731-72.0632 18.3558-75.5447 25.1315-75.5447L112.519-75.5447C119.047-75.5447 122.777-72.0632 122.777-65.2859L122.777-5.23434C122.777 1.54263 119.047 5.02453 112.519 5.02453ZM57.0816-57.2503C49.1041-57.2503 43.1847-51.1432 43.1847-43.1008C43.1847-28.7215 59.2387-16.4508 67.3539-11.3317C67.8548-11.0189 68.4817-10.7045 68.7957-10.7045C69.1713-10.7045 69.7972-10.957 70.2978-11.3317C77.9794-17.1319 94.4665-28.7215 94.4665-43.1008C94.4665-51.1432 88.5472-57.2503 80.5082-57.2503C75.3988-57.2503 70.9773-53.8888 68.7949-50.0212C66.674-53.8888 62.2534-57.2503 57.0816-57.2503Z"/>
  </g>
  <g id="Black-S" transform="matrix(1 0 0 1 2877.35 696)">
   <path d="M25 2.92969L87.1094 2.92969C96.6797 2.92969 102.344-2.73438 102.344-12.3047L102.344-58.1055C102.344-67.6758 96.6797-73.3398 87.1094-73.3398L25-73.3398C15.4297-73.3398 9.76562-67.6758 9.76562-58.1055L9.76562-12.3047C9.76562-2.73438 15.4297 2.92969 25 2.92969ZM27.2461-11.2305C25-11.2305 23.9258-12.1094 23.9258-14.5508L23.9258-55.8594C23.9258-58.3008 25-59.1797 27.2461-59.1797L84.8633-59.1797C87.1094-59.1797 88.1836-58.3008 88.1836-55.8594L88.1836-14.5508C88.1836-12.1094 87.1094-11.2305 84.8633-11.2305ZM47.7051-50.4883C42.2363-50.4883 37.5977-46.1426 37.5977-39.4043C37.5977-27.1484 52.1973-19.043 53.6133-18.3105C54.2969-17.9688 55.2734-17.4316 56.0547-17.4316C56.8359-17.4316 57.7637-17.9688 58.4961-18.3105C59.9609-18.9941 74.5117-27.1484 74.5117-39.4043C74.5117-46.1426 69.873-50.4883 64.4043-50.4883C60.2051-50.4883 57.4219-47.998 56.0547-45.752C54.6875-47.998 51.9043-50.4883 47.7051-50.4883Z"/>
  </g>
  <g id="Heavy-S" transform="matrix(1 0 0 1 2580.87 696)">
   <path d="M24.3431 2.33042L87.2938 2.33042C96.576 2.33042 101.871-2.96487 101.871-12.2125L101.871-58.1977C101.871-67.4453 96.576-72.7405 87.2938-72.7405L24.3431-72.7405C15.0724-72.7405 9.76562-67.4453 9.76562-58.1977L9.76562-12.2125C9.76562-2.96487 15.0724 2.33042 24.3431 2.33042ZM26.0821-10.1587C23.5364-10.1587 22.2432-11.2796 22.2432-14.0092L22.2432-56.401C22.2432-59.1421 23.5364-60.2515 26.0821-60.2515L85.5548-60.2515C88.1005-60.2515 89.3937-59.1421 89.3937-56.401L89.3937-14.0092C89.3937-11.2796 88.1005-10.1587 85.5548-10.1587ZM47.2902-50.8571C41.5679-50.8571 36.9177-46.3731 36.9177-39.6002C36.9177-27.9321 50.4802-19.5616 53.4865-17.7804C54.1701-17.4271 55.1351-16.8784 55.8588-16.8784C56.5708-16.8784 57.4756-17.4271 58.1849-17.7804C61.2171-19.5358 74.7422-27.9321 74.7422-39.6002C74.7422-46.3731 70.092-50.8571 64.3812-50.8571C60.2166-50.8571 57.3297-48.4129 55.8357-45.8557C54.3302-48.4129 51.4664-50.8571 47.2902-50.8571Z"/>
  </g>
  <g id="Bold-S" transform="matrix(1 0 0 1 2284.43 696)">
   <path d="M23.6084 1.66016L87.5 1.66016C96.46 1.66016 101.343-3.22266 101.343-12.1094L101.343-58.3008C101.343-67.1875 96.46-72.0703 87.5-72.0703L23.6084-72.0703C14.6729-72.0703 9.76562-67.1875 9.76562-58.3008L9.76562-12.1094C9.76562-3.22266 14.6729 1.66016 23.6084 1.66016ZM24.7803-8.95997C21.8994-8.95997 20.3614-10.3516 20.3614-13.4033L20.3614-57.0069C20.3614-60.083 21.8994-61.4502 24.7803-61.4502L86.3282-61.4502C89.209-61.4502 90.747-60.083 90.747-57.0069L90.747-13.4033C90.747-10.3516 89.209-8.95997 86.3282-8.95997ZM46.8262-51.2695C40.8203-51.2695 36.1572-46.6309 36.1572-39.8194C36.1572-28.8086 48.5596-20.1416 53.3447-17.1875C54.0283-16.8213 54.9805-16.2597 55.6397-16.2597C56.2744-16.2597 57.1533-16.8213 57.8369-17.1875C62.6221-20.1416 75-28.8086 75-39.8194C75-46.6309 70.3369-51.2695 64.3555-51.2695C60.2295-51.2695 57.2265-48.877 55.5909-45.9717C53.9307-48.877 50.9766-51.2695 46.8262-51.2695Z"/>
  </g>
  <g id="Semibold-S" transform="matrix(1 0 0 1 1987.9 696)">
   <path d="M23.1019 1.19805L87.6422 1.19805C96.38 1.19805 100.979-3.40039 100.979-12.0383L100.979-58.3719C100.979-67.0098 96.38-71.6082 87.6422-71.6082L23.1019-71.6082C14.3974-71.6082 9.76562-67.0098 9.76562-58.3719L9.76562-12.0383C9.76562-3.40039 14.3974 1.19805 23.1019 1.19805ZM23.8827-8.1335C20.7708-8.1335 19.0639-9.71173 19.0639-12.9857L19.0639-57.4245C19.0639-60.7317 20.7708-62.2767 23.8827-62.2767L86.8614-62.2767C89.9733-62.2767 91.6801-60.7317 91.6801-57.4245L91.6801-12.9857C91.6801-9.71173 89.9733-8.1335 86.8614-8.1335ZM46.5063-51.5539C40.3049-51.5539 35.6329-46.8086 35.6329-39.9704C35.6329-29.4129 47.2355-20.5415 53.247-16.7787C53.9306-16.4036 54.8738-15.8332 55.4886-15.8332C56.07-15.8332 56.9312-16.4036 57.597-16.7787C63.5907-20.5593 75.1777-29.4129 75.1777-39.9704C75.1777-46.8086 70.5058-51.5539 64.3377-51.5539C60.2384-51.5539 57.1554-49.1969 55.422-46.0517C53.6552-49.1969 50.6388-51.5539 46.5063-51.5539Z"/>
  </g>
  <g id="Medium-S" transform="matrix(1 0 0 1 1691.32 696)">
   <path d="M22.7178 0.847657L87.75 0.847657C96.3193 0.847657 100.702-3.53516 100.702-11.9844L100.702-58.4258C100.702-66.875 96.3193-71.2578 87.75-71.2578L22.7178-71.2578C14.1885-71.2578 9.76562-66.875 9.76562-58.4258L9.76562-11.9844C9.76562-3.53516 14.1885 0.847657 22.7178 0.847657ZM23.2022-7.50684C19.915-7.50684 18.0801-9.22657 18.0801-12.669L18.0801-57.7412C18.0801-61.2236 19.915-62.9033 23.2022-62.9033L87.2657-62.9033C90.5527-62.9033 92.3877-61.2236 92.3877-57.7412L92.3877-12.669C92.3877-9.22657 90.5527-7.50684 87.2657-7.50684ZM46.2637-51.7695C39.9141-51.7695 35.2354-46.9433 35.2354-40.085C35.2354-29.8711 46.2315-20.8447 53.1729-16.4688C53.8565-16.0869 54.793-15.5098 55.374-15.5098C55.915-15.5098 56.7627-16.0869 57.415-16.4688C64.3252-20.876 75.3125-29.8711 75.3125-40.085C75.3125-46.9433 70.6338-51.7695 64.3242-51.7695C60.2451-51.7695 57.1015-49.4395 55.294-46.1123C53.4463-49.4395 50.3828-51.7695 46.2637-51.7695Z"/>
  </g>
  <g id="Regular-S" transform="matrix(1 0 0 1 1394.79 696)">
   <path d="M22.2168 0.390625L87.8906 0.390625C96.2402 0.390625 100.342-3.71094 100.342-11.9141L100.342-58.4961C100.342-66.6992 96.2402-70.8008 87.8906-70.8008L22.2168-70.8008C13.916-70.8008 9.76562-66.6992 9.76562-58.4961L9.76562-11.9141C9.76562-3.71094 13.916 0.390625 22.2168 0.390625ZM22.3145-6.68945C18.7988-6.68945 16.7969-8.59375 16.7969-12.2559L16.7969-58.1543C16.7969-61.8652 18.7988-63.7207 22.3145-63.7207L87.793-63.7207C91.3086-63.7207 93.3105-61.8652 93.3105-58.1543L93.3105-12.2559C93.3105-8.59375 91.3086-6.68945 87.793-6.68945ZM45.9473-52.0508C39.4043-52.0508 34.7168-47.1191 34.7168-40.2344C34.7168-30.4688 44.9219-21.2402 53.0762-16.0645C53.7598-15.6738 54.6875-15.0879 55.2246-15.0879C55.7129-15.0879 56.543-15.6738 57.1777-16.0645C65.2832-21.2891 75.4883-30.4688 75.4883-40.2344C75.4883-47.1191 70.8008-52.0508 64.3066-52.0508C60.2539-52.0508 57.0312-49.7559 55.127-46.1914C53.1738-49.7559 50.0488-52.0508 45.9473-52.0508Z"/>
  </g>
  <g id="Light-S" transform="matrix(1 0 0 1 1098.43 696)">
   <path d="M21.3994-0.290523L88.0117-0.290523C95.7558-0.290523 99.6456-4.21045 99.6456-11.8233L99.6456-58.6172C99.6456-66.23 95.7558-70.1499 88.0117-70.1499L21.3994-70.1499C13.689-70.1499 9.76562-66.2602 9.76562-58.6172L9.76562-11.8233C9.76562-4.18017 13.689-0.290523 21.3994-0.290523ZM21.4971-5.75098C17.4214-5.75098 15.1924-7.9126 15.1924-12.0894L15.1924-58.3511C15.1924-62.5615 17.4214-64.6894 21.4971-64.6894L87.9141-64.6894C91.9292-64.6894 94.2187-62.5615 94.2187-58.3511L94.2187-12.0894C94.2187-7.9126 91.9292-5.75098 87.9141-5.75098ZM45.5689-52.187C39.1167-52.187 34.4443-47.3008 34.4443-40.5977C34.4443-30.3628 45.3911-21.0132 52.9854-16.2007C53.5781-15.8554 54.3696-15.3755 54.8159-15.3755C55.2437-15.3755 55.9678-15.8403 56.5268-16.2007C63.9815-21.2134 75.0342-30.3628 75.0342-40.5977C75.0342-47.3008 70.3618-52.187 63.9282-52.187C59.8906-52.187 56.5923-49.7862 54.7486-46.3882C52.8862-49.7862 49.6553-52.187 45.5689-52.187Z"/>
  </g>
  <g id="Thin-S" transform="matrix(1 0 0 1 802.177 696)">
   <path d="M20.3184-1.1914L88.1719-1.1914C95.1152-1.1914 98.7246-4.87108 98.7246-11.7031L98.7246-58.7774C98.7246-65.6094 95.1152-69.2891 88.1719-69.2891L20.3184-69.2891C13.3887-69.2891 9.76562-65.6797 9.76562-58.7774L9.76562-11.7031C9.76562-4.80077 13.3887-1.1914 20.3184-1.1914ZM20.416-4.50979C15.5996-4.50979 13.0703-7.01173 13.0703-11.8692L13.0703-58.6113C13.0703-63.4824 15.5996-65.9707 20.416-65.9707L88.0742-65.9707C92.75-65.9707 95.4199-63.4824 95.4199-58.6113L95.4199-11.8692C95.4199-7.01173 92.75-4.50979 88.0742-4.50979ZM45.0684-52.3672C38.7363-52.3672 34.084-47.541 34.084-41.0781C34.084-30.2227 46.0117-20.7129 52.8652-16.3808C53.3379-16.0957 53.9492-15.7559 54.2754-15.7559C54.6231-15.7559 55.2071-16.0605 55.666-16.3808C62.2598-21.1133 74.4336-30.2227 74.4336-41.0781C74.4336-47.541 69.7813-52.3672 63.4277-52.3672C59.4102-52.3672 56.0117-49.8262 54.2481-46.6484C52.5058-49.8262 49.1348-52.3672 45.0684-52.3672Z"/>
  </g>
  <g id="Ultralight-S" transform="matrix(1 0 0 1 505.702 696)">
   <path d="M19.7647-1.65282L88.2539-1.65282C94.7871-1.65282 98.2529-5.20946 98.2529-11.6416L98.2529-58.8594C98.2529-65.2915 94.7871-68.8482 88.2539-68.8482L19.7647-68.8482C13.2349-68.8482 9.76562-65.3823 9.76562-58.8594L9.76562-11.6416C9.76562-5.11864 13.2349-1.65282 19.7647-1.65282ZM19.8623-3.87405C14.6665-3.87405 11.9834-6.55031 11.9834-11.7564L11.9834-58.7446C11.9834-63.9541 14.6665-66.6269 19.8623-66.6269L88.1562-66.6269C93.1704-66.6269 96.0351-63.9541 96.0351-58.7446L96.0351-11.7564C96.0351-6.55031 93.1704-3.87405 88.1562-3.87405ZM44.812-52.4595C38.5415-52.4595 33.8994-47.6641 33.8994-41.3242C33.8994-30.1509 46.3296-20.5591 52.8037-16.4731C53.2148-16.2187 53.7339-15.9507 53.9985-15.9507C54.3052-15.9507 54.8174-16.1733 55.2251-16.4731C61.378-21.062 74.126-30.1509 74.126-41.3242C74.126-47.6641 69.4839-52.4595 63.1714-52.4595C59.1641-52.4595 55.7144-49.8467 53.9917-46.7817C52.311-49.8467 48.8682-52.4595 44.812-52.4595Z"/>
  </g>
 </g>
</svg>
