<?xml version="1.0" encoding="UTF-8"?>
<!--Generator: Apple Native CoreSVG 175.5-->
<!DOCTYPE svg
PUBLIC "-//W3C//DTD SVG 1.1//EN"
       "http://www.w3.org/Graphics/SVG/1.1/DTD/svg11.dtd">
<svg version="1.1" xmlns="http://www.w3.org/2000/svg" xmlns:xlink="http://www.w3.org/1999/xlink" width="3300" height="2200">
 <!--glyph: "", point size: 100.0, font version: "18.0d10e1", template writer version: "90"-->
 <g id="Notes">
  <rect height="2200" id="artboard" style="fill:white;opacity:1" width="3300" x="0" y="0"/>
  <line style="fill:none;stroke:black;opacity:1;stroke-width:0.5;" x1="263" x2="3036" y1="292" y2="292"/>
  <text style="stroke:none;fill:black;font-family:sans-serif;font-size:13;font-weight:bold;" transform="matrix(1 0 0 1 263 322)">Weight/Scale Variations</text>
  <text style="stroke:none;fill:black;font-family:sans-serif;font-size:13;text-anchor:middle;" transform="matrix(1 0 0 1 559.711 322)">Ultralight</text>
  <text style="stroke:none;fill:black;font-family:sans-serif;font-size:13;text-anchor:middle;" transform="matrix(1 0 0 1 856.422 322)">Thin</text>
  <text style="stroke:none;fill:black;font-family:sans-serif;font-size:13;text-anchor:middle;" transform="matrix(1 0 0 1 1153.13 322)">Light</text>
  <text style="stroke:none;fill:black;font-family:sans-serif;font-size:13;text-anchor:middle;" transform="matrix(1 0 0 1 1449.84 322)">Regular</text>
  <text style="stroke:none;fill:black;font-family:sans-serif;font-size:13;text-anchor:middle;" transform="matrix(1 0 0 1 1746.56 322)">Medium</text>
  <text style="stroke:none;fill:black;font-family:sans-serif;font-size:13;text-anchor:middle;" transform="matrix(1 0 0 1 2043.27 322)">Semibold</text>
  <text style="stroke:none;fill:black;font-family:sans-serif;font-size:13;text-anchor:middle;" transform="matrix(1 0 0 1 2339.98 322)">Bold</text>
  <text style="stroke:none;fill:black;font-family:sans-serif;font-size:13;text-anchor:middle;" transform="matrix(1 0 0 1 2636.69 322)">Heavy</text>
  <text style="stroke:none;fill:black;font-family:sans-serif;font-size:13;text-anchor:middle;" transform="matrix(1 0 0 1 2933.4 322)">Black</text>
  <line style="fill:none;stroke:black;opacity:1;stroke-width:0.5;" x1="263" x2="3036" y1="1903" y2="1903"/>
  <g transform="matrix(1 0 0 1 263 1933)">
   <path d="M9.24805 0.830078C13.5547 0.830078 17.1387-2.74414 17.1387-7.05078C17.1387-11.3574 13.5449-14.9316 9.23828-14.9316C4.94141-14.9316 1.36719-11.3574 1.36719-7.05078C1.36719-2.74414 4.95117 0.830078 9.24805 0.830078ZM9.24805-0.654297C5.70312-0.654297 2.87109-3.49609 2.87109-7.05078C2.87109-10.6055 5.69336-13.4473 9.23828-13.4473C12.793-13.4473 15.6445-10.6055 15.6445-7.05078C15.6445-3.49609 12.8027-0.654297 9.24805-0.654297ZM5.6543-7.05078C5.6543-6.62109 5.95703-6.32812 6.40625-6.32812L8.50586-6.32812L8.50586-4.20898C8.50586-3.76953 8.79883-3.4668 9.22852-3.4668C9.67773-3.4668 9.9707-3.76953 9.9707-4.20898L9.9707-6.32812L12.0898-6.32812C12.5293-6.32812 12.832-6.62109 12.832-7.05078C12.832-7.49023 12.5293-7.79297 12.0898-7.79297L9.9707-7.79297L9.9707-9.90234C9.9707-10.3516 9.67773-10.6543 9.22852-10.6543C8.79883-10.6543 8.50586-10.3516 8.50586-9.90234L8.50586-7.79297L6.40625-7.79297C5.95703-7.79297 5.6543-7.49023 5.6543-7.05078Z"/>
  </g>
  <g transform="matrix(1 0 0 1 281.867 1933)">
   <path d="M11.709 2.91016C17.1582 2.91016 21.6699-1.61133 21.6699-7.05078C21.6699-12.5 17.1484-17.0117 11.6992-17.0117C6.25977-17.0117 1.74805-12.5 1.74805-7.05078C1.74805-1.61133 6.26953 2.91016 11.709 2.91016ZM11.709 1.25C7.09961 1.25 3.41797-2.44141 3.41797-7.05078C3.41797-11.6602 7.08984-15.3516 11.6992-15.3516C16.3086-15.3516 20.0098-11.6602 20.0098-7.05078C20.0098-2.44141 16.3184 1.25 11.709 1.25ZM7.17773-7.05078C7.17773-6.57227 7.50977-6.25 8.00781-6.25L10.8789-6.25L10.8789-3.36914C10.8789-2.88086 11.2109-2.53906 11.6895-2.53906C12.1777-2.53906 12.5195-2.87109 12.5195-3.36914L12.5195-6.25L15.4004-6.25C15.8887-6.25 16.2305-6.57227 16.2305-7.05078C16.2305-7.53906 15.8887-7.88086 15.4004-7.88086L12.5195-7.88086L12.5195-10.752C12.5195-11.25 12.1777-11.5918 11.6895-11.5918C11.2109-11.5918 10.8789-11.25 10.8789-10.752L10.8789-7.88086L8.00781-7.88086C7.50977-7.88086 7.17773-7.53906 7.17773-7.05078Z"/>
  </g>
  <g transform="matrix(1 0 0 1 305.646 1933)">
   <path d="M14.9707 5.66406C21.9336 5.66406 27.6953-0.0976562 27.6953-7.05078C27.6953-14.0137 21.9238-19.7754 14.9609-19.7754C8.00781-19.7754 2.25586-14.0137 2.25586-7.05078C2.25586-0.0976562 8.01758 5.66406 14.9707 5.66406ZM14.9707 3.84766C8.93555 3.84766 4.08203-1.01562 4.08203-7.05078C4.08203-13.0957 8.92578-17.9492 14.9609-17.9492C21.0059-17.9492 25.8691-13.0957 25.8691-7.05078C25.8691-1.01562 21.0156 3.84766 14.9707 3.84766ZM9.19922-7.05078C9.19922-6.5332 9.57031-6.17188 10.1172-6.17188L14.0625-6.17188L14.0625-2.2168C14.0625-1.67969 14.4336-1.29883 14.9512-1.29883C15.4883-1.29883 15.8594-1.66992 15.8594-2.2168L15.8594-6.17188L19.8145-6.17188C20.3516-6.17188 20.7324-6.5332 20.7324-7.05078C20.7324-7.59766 20.3613-7.96875 19.8145-7.96875L15.8594-7.96875L15.8594-11.9141C15.8594-12.4609 15.4883-12.8418 14.9512-12.8418C14.4336-12.8418 14.0625-12.4609 14.0625-11.9141L14.0625-7.96875L10.1172-7.96875C9.57031-7.96875 9.19922-7.59766 9.19922-7.05078Z"/>
  </g>
  <text style="stroke:none;fill:black;font-family:sans-serif;font-size:13;font-weight:bold;" transform="matrix(1 0 0 1 263 1953)">Design Variations</text>
  <text style="stroke:none;fill:black;font-family:sans-serif;font-size:13;" transform="matrix(1 0 0 1 263 1971)">Symbols are supported in up to nine weights and three scales.</text>
  <text style="stroke:none;fill:black;font-family:sans-serif;font-size:13;" transform="matrix(1 0 0 1 263 1989)">For optimal layout with text and other symbols, vertically align</text>
  <text style="stroke:none;fill:black;font-family:sans-serif;font-size:13;" transform="matrix(1 0 0 1 263 2007)">symbols with the adjacent text.</text>
  <line style="fill:none;stroke:#00AEEF;stroke-width:0.5;opacity:1.0;" x1="776" x2="776" y1="1919" y2="1933"/>
  <g transform="matrix(1 0 0 1 776 1933)">
   <path d="M3.31055 0.15625C3.82812 0.15625 4.08203-0.0390625 4.26758-0.585938L5.52734-4.0332L11.2891-4.0332L12.5488-0.585938C12.7344-0.0390625 12.9883 0.15625 13.4961 0.15625C14.0137 0.15625 14.3457-0.15625 14.3457-0.644531C14.3457-0.810547 14.3164-0.966797 14.2383-1.17188L9.6582-13.3691C9.43359-13.9648 9.0332-14.2676 8.4082-14.2676C7.80273-14.2676 7.39258-13.9746 7.17773-13.3789L2.59766-1.16211C2.51953-0.957031 2.49023-0.800781 2.49023-0.634766C2.49023-0.146484 2.80273 0.15625 3.31055 0.15625ZM6.00586-5.51758L8.37891-12.0898L8.42773-12.0898L10.8008-5.51758Z"/>
  </g>
  <line style="fill:none;stroke:#00AEEF;stroke-width:0.5;opacity:1.0;" x1="793.197" x2="793.197" y1="1919" y2="1933"/>
  <text style="stroke:none;fill:black;font-family:sans-serif;font-size:13;font-weight:bold;" transform="matrix(1 0 0 1 776 1953)">Margins</text>
  <text style="stroke:none;fill:black;font-family:sans-serif;font-size:13;" transform="matrix(1 0 0 1 776 1971)">Leading and trailing margins on the left and right side of each symbol</text>
  <text style="stroke:none;fill:black;font-family:sans-serif;font-size:13;" transform="matrix(1 0 0 1 776 1989)">can be adjusted by modifying the x-location of the margin guidelines.</text>
  <text style="stroke:none;fill:black;font-family:sans-serif;font-size:13;" transform="matrix(1 0 0 1 776 2007)">Modifications are automatically applied proportionally to all</text>
  <text style="stroke:none;fill:black;font-family:sans-serif;font-size:13;" transform="matrix(1 0 0 1 776 2025)">scales and weights.</text>
  <g transform="matrix(1 0 0 1 1289 1933)">
   <path d="M2.8418 1.86523L4.54102 3.57422C5.40039 4.44336 6.38672 4.38477 7.31445 3.35938L18.0078-8.42773L17.041-9.4043L6.42578 2.27539C6.07422 2.67578 5.74219 2.77344 5.27344 2.30469L4.10156 1.14258C3.63281 0.683594 3.74023 0.341797 4.14062-0.0195312L15.6152-10.8203L14.6387-11.7871L3.04688-0.898438C2.06055 0.0195312 1.98242 0.996094 2.8418 1.86523ZM9.25781-16.3281C8.83789-15.918 8.80859-15.3418 9.04297-14.9512C9.27734-14.5898 9.73633-14.3555 10.3809-14.5215C11.8457-14.8633 13.3691-14.9219 14.7949-13.9844L14.209-12.5293C13.8672-11.6992 14.043-11.1133 14.5801-10.5664L16.875-8.25195C17.3633-7.76367 17.7734-7.74414 18.3398-7.8418L19.4043-8.03711L20.0684-7.36328L20.0293-6.80664C19.9902-6.30859 20.1172-5.92773 20.6055-5.44922L21.3672-4.70703C21.8457-4.22852 22.4609-4.19922 22.9297-4.66797L25.8398-7.58789C26.3086-8.05664 26.2891-8.65234 25.8105-9.13086L25.0391-9.89258C24.5605-10.3711 24.1895-10.5273 23.7109-10.4883L23.1348-10.4395L22.4902-11.0742L22.7344-12.1973C22.8613-12.7637 22.7051-13.2031 22.1191-13.7891L19.9219-15.9766C16.582-19.2969 12.1484-19.2188 9.25781-16.3281ZM10.752-15.957C13.1836-17.7344 16.4746-17.4316 18.7012-15.2051L21.1328-12.793C21.3672-12.5586 21.4062-12.373 21.3379-12.0312L21.0156-10.5469L22.5195-9.0625L23.5059-9.12109C23.7598-9.13086 23.8379-9.11133 24.0332-8.91602L24.6094-8.33984L22.168-5.89844L21.5918-6.47461C21.3965-6.66992 21.3672-6.74805 21.377-7.01172L21.4453-7.98828L19.9512-9.47266L18.4277-9.21875C18.1055-9.15039 17.959-9.17969 17.7148-9.41406L15.7129-11.416C15.459-11.6504 15.4297-11.8164 15.5859-12.1875L16.4648-14.2773C14.9023-15.7324 12.8711-16.3574 10.8398-15.7617C10.6836-15.7227 10.625-15.8496 10.752-15.957Z"/>
  </g>
  <text style="stroke:none;fill:black;font-family:sans-serif;font-size:13;font-weight:bold;" transform="matrix(1 0 0 1 1289 1953)">Exporting</text>
  <text style="stroke:none;fill:black;font-family:sans-serif;font-size:13;" transform="matrix(1 0 0 1 1289 1971)">Symbols should be outlined when exporting to ensure the</text>
  <text style="stroke:none;fill:black;font-family:sans-serif;font-size:13;" transform="matrix(1 0 0 1 1289 1989)">design is preserved when submitting to Xcode.</text>
  <text id="template-version" style="stroke:none;fill:black;font-family:sans-serif;font-size:13;text-anchor:end;" transform="matrix(1 0 0 1 3036 1933)">Template v.2.0</text>
  <text style="stroke:none;fill:black;font-family:sans-serif;font-size:13;text-anchor:end;" transform="matrix(1 0 0 1 3036 1951)">Requires Xcode 12 or greater</text>
  <text id="descriptive-name" style="stroke:none;fill:black;font-family:sans-serif;font-size:13;text-anchor:end;" transform="matrix(1 0 0 1 3036 1969)">Generated from custom.heart.text.square</text>
  <text style="stroke:none;fill:black;font-family:sans-serif;font-size:13;text-anchor:end;" transform="matrix(1 0 0 1 3036 1987)">Typeset at 100 points</text>
  <text style="stroke:none;fill:black;font-family:sans-serif;font-size:13;" transform="matrix(1 0 0 1 263 726)">Small</text>
  <text style="stroke:none;fill:black;font-family:sans-serif;font-size:13;" transform="matrix(1 0 0 1 263 1156)">Medium</text>
  <text style="stroke:none;fill:black;font-family:sans-serif;font-size:13;" transform="matrix(1 0 0 1 263 1586)">Large</text>
 </g>
 <g id="Guides">
  <g id="H-reference" style="fill:#27AAE1;stroke:none;" transform="matrix(1 0 0 1 339 696)">
   <path d="M0.993654 0L3.63775 0L29.3281-67.1323L30.0303-67.1323L30.0303-70.459L28.1226-70.459ZM11.6885-24.4799L46.9815-24.4799L46.2315-26.7285L12.4385-26.7285ZM55.1196 0L57.7637 0L30.6382-70.459L29.4326-70.459L29.4326-67.1323Z"/>
  </g>
  <line id="Baseline-S" style="fill:none;stroke:#27AAE1;opacity:1;stroke-width:0.5;" x1="263" x2="3036" y1="696" y2="696"/>
  <line id="Capline-S" style="fill:none;stroke:#27AAE1;opacity:1;stroke-width:0.5;" x1="263" x2="3036" y1="625.541" y2="625.541"/>
  <g id="H-reference" style="fill:#27AAE1;stroke:none;" transform="matrix(1 0 0 1 339 1126)">
   <path d="M0.993654 0L3.63775 0L29.3281-67.1323L30.0303-67.1323L30.0303-70.459L28.1226-70.459ZM11.6885-24.4799L46.9815-24.4799L46.2315-26.7285L12.4385-26.7285ZM55.1196 0L57.7637 0L30.6382-70.459L29.4326-70.459L29.4326-67.1323Z"/>
  </g>
  <line id="Baseline-M" style="fill:none;stroke:#27AAE1;opacity:1;stroke-width:0.5;" x1="263" x2="3036" y1="1126" y2="1126"/>
  <line id="Capline-M" style="fill:none;stroke:#27AAE1;opacity:1;stroke-width:0.5;" x1="263" x2="3036" y1="1055.54" y2="1055.54"/>
  <g id="H-reference" style="fill:#27AAE1;stroke:none;" transform="matrix(1 0 0 1 339 1556)">
   <path d="M0.993654 0L3.63775 0L29.3281-67.1323L30.0303-67.1323L30.0303-70.459L28.1226-70.459ZM11.6885-24.4799L46.9815-24.4799L46.2315-26.7285L12.4385-26.7285ZM55.1196 0L57.7637 0L30.6382-70.459L29.4326-70.459L29.4326-67.1323Z"/>
  </g>
  <line id="Baseline-L" style="fill:none;stroke:#27AAE1;opacity:1;stroke-width:0.5;" x1="263" x2="3036" y1="1556" y2="1556"/>
  <line id="Capline-L" style="fill:none;stroke:#27AAE1;opacity:1;stroke-width:0.5;" x1="263" x2="3036" y1="1485.54" y2="1485.54"/>
  <line id="left-margin" style="fill:none;stroke:#00AEEF;stroke-width:0.5;opacity:1.0;" x1="1392.46" x2="1392.46" y1="1030.78" y2="1150.12"/>
  <line id="right-margin" style="fill:none;stroke:#00AEEF;stroke-width:0.5;opacity:1.0;" x1="1507.23" x2="1507.23" y1="1030.78" y2="1150.12"/>
 </g>
 <g id="Symbols">
  <g id="Black-L" transform="matrix(1 0 0 1 2855.72 1556)">
   <path d="M53.9635-67.3239C49.6308-67.3239 46.0239-63.8261 46.0239-58.5715C46.0239-49.67 56.3073-43.2728 58.8581-41.6708C59.4382-41.3098 60.0976-40.9893 60.6738-40.9893C61.2695-40.9893 61.926-41.3879 62.449-41.6708C64.9979-43.0151 75.2611-49.67 75.2611-58.5715C75.2611-63.8261 71.7698-67.3239 67.2787-67.3239C64.1375-67.3239 61.8305-65.4074 60.653-63.3735C59.5142-65.4074 57.2477-67.3239 53.9635-67.3239ZM50.522-23.2865L104.835-23.2865C107.364-23.2865 109.254-25.2571 109.254-27.7834C109.254-30.2317 107.364-32.1427 104.835-32.1427L50.522-32.1427C47.9153-32.1427 46.0239-30.2317 46.0239-27.7834C46.0239-25.2571 47.9153-23.2865 50.522-23.2865ZM50.522-5.07948L92.0359-5.07948C94.5646-5.07948 96.4559-6.99165 96.4559-9.43994C96.4559-11.9454 94.5646-13.9368 92.0359-13.9368L50.522-13.9368C47.9153-13.9368 46.0239-11.9454 46.0239-9.43994C46.0239-6.99165 47.9153-5.07948 50.522-5.07948ZM39.8556 26.4229L115.513 26.4229C130.677 26.4229 139.284 17.8129 139.284 2.71364L139.284-73.0892C139.284-88.1885 130.677-96.7983 115.513-96.7983L39.8556-96.7983C24.7123-96.7983 16.084-88.1909 16.084-73.0892L16.084 2.71364C16.084 17.8153 24.7123 26.4229 39.8556 26.4229ZM42.5864 6.421C38.2704 6.421 36.065 4.51165 36.065-0.121185L36.065-70.2544C36.065-74.8664 38.2704-76.7966 42.5864-76.7966L112.782-76.7966C117.093-76.7966 119.303-74.8664 119.303-70.2544L119.303-0.121185C119.303 4.51165 117.093 6.421 112.782 6.421Z"/>
  </g>
  <g id="Heavy-L" transform="matrix(1 0 0 1 2559.92 1556)">
   <path d="M52.4327-68.564C47.8937-68.564 44.2367-64.9334 44.2367-59.6187C44.2367-50.85 54.1988-44.2365 57.6234-42.0104C58.1997-41.6395 58.8508-41.3235 59.3812-41.3235C59.9361-41.3235 60.5468-41.7088 61.0841-42.0104C64.5267-43.9585 74.435-50.85 74.435-59.6187C74.435-64.9334 70.8616-68.564 66.173-68.564C63.0142-68.564 60.6112-66.6304 59.351-64.4025C58.1107-66.6304 55.7626-68.564 52.4327-68.564ZM48.5526-23.0563L104.769-23.0563C107.2-23.0563 109.01-24.9469 109.01-27.3666C109.01-29.7172 107.2-31.5575 104.769-31.5575L48.5526-31.5575C46.0524-31.5575 44.2367-29.7172 44.2367-27.3666C44.2367-24.9469 46.0524-23.0563 48.5526-23.0563ZM48.5526-4.0968L91.0204-4.0968C93.4514-4.0968 95.2671-5.94272 95.2671-8.2933C95.2671-10.6829 93.4514-12.6036 91.0204-12.6036L48.5526-12.6036C46.0524-12.6036 44.2367-10.6829 44.2367-8.2933C44.2367-5.94272 46.0524-4.0968 48.5526-4.0968ZM38.8315 25.5162L114.705 25.5162C129.348 25.5162 137.453 17.4003 137.453 2.85924L137.453-73.226C137.453-87.767 129.348-95.8828 114.705-95.8828L38.8315-95.8828C24.2188-95.8828 16.084-87.7783 16.084-73.226L16.084 2.85924C16.084 17.4116 24.2188 25.5162 38.8315 25.5162ZM40.9557 7.98558C36.1179 7.98558 33.5844 5.72105 33.5844 0.584077L33.5844-70.9508C33.5844-76.0576 36.1179-78.3523 40.9557-78.3523L112.581-78.3523C117.396-78.3523 119.952-76.0576 119.952-70.9508L119.952 0.584077C119.952 5.72105 117.396 7.98558 112.581 7.98558Z"/>
  </g>
  <g id="Bold-L" transform="matrix(1 0 0 1 2264.35 1556)">
   <path d="M50.5945-70.0263C45.8167-70.0263 42.0982-66.2416 42.0982-60.8651C42.0982-52.1833 51.7651-45.2637 56.1539-42.3957C56.7151-42.0245 57.3436-41.7161 57.8201-41.7161C58.3213-41.7161 58.8781-42.0785 59.4235-42.3957C63.8309-44.9923 73.4279-52.1833 73.4279-60.8651C73.4279-66.2416 69.7545-70.0263 64.8424-70.0263C61.6532-70.0263 59.1348-68.0548 57.7821-65.6259C56.4337-68.0548 53.9782-70.0263 50.5945-70.0263ZM46.1167-22.6677L104.587-22.6677C106.858-22.6677 108.539-24.4286 108.539-26.6729C108.539-28.8634 106.858-30.5818 104.587-30.5818L46.1167-30.5818C43.7919-30.5818 42.0982-28.8634 42.0982-26.6729C42.0982-24.4286 43.7919-22.6677 46.1167-22.6677ZM46.1167-2.91992L89.6784-2.91992C91.9492-2.91992 93.6428-4.65157 93.6428-6.84199C93.6428-9.04842 91.9492-10.8472 89.6784-10.8472L46.1167-10.8472C43.7919-10.8472 42.0982-9.04842 42.0982-6.84199C42.0982-4.65157 43.7919-2.91992 46.1167-2.91992ZM37.5412 24.3868L113.714 24.3868C127.667 24.3868 135.171 16.8558 135.171 3.04352L135.171-73.395C135.171-87.2073 127.667-94.7383 113.714-94.7383L37.5412-94.7383C23.6265-94.7383 16.084-87.2337 16.084-73.395L16.084 3.04352C16.084 16.8823 23.6265 24.3868 37.5412 24.3868ZM38.987 9.90709C33.4665 9.90709 30.5258 7.19706 30.5258 1.40781L30.5258-71.7593C30.5258-77.5105 33.4665-80.2586 38.987-80.2586L112.268-80.2586C117.736-80.2586 120.729-77.5105 120.729-71.7593L120.729 1.40781C120.729 7.19706 117.736 9.90709 112.268 9.90709Z"/>
  </g>
  <g id="Semibold-L" transform="matrix(1 0 0 1 1968.43 1556)">
   <path d="M49.3272-71.0343C44.3849-71.0343 40.6239-67.1435 40.6239-61.7244C40.6239-53.1024 50.0874-45.9718 55.1409-42.6613C55.6917-42.2899 56.3046-41.9867 56.7439-41.9867C57.2081-41.9867 57.7278-42.3333 58.2786-42.6613C63.3513-45.705 72.7336-53.1024 72.7336-61.7244C72.7336-67.1435 68.9914-71.0343 63.9252-71.0343C60.7149-71.0343 58.117-69.0367 56.7005-66.4692C55.2776-69.0367 52.748-71.0343 49.3272-71.0343ZM44.4374-22.3997L104.462-22.3997C106.623-22.3997 108.214-24.0712 108.214-26.1947C108.214-28.2747 106.623-29.9091 104.462-29.9091L44.4374-29.9091C42.2335-29.9091 40.6239-28.2747 40.6239-26.1947C40.6239-24.0712 42.2335-22.3997 44.4374-22.3997ZM44.4374-2.10858L88.7531-2.10858C90.9136-2.10858 92.5231-3.76145 92.5231-5.84147C92.5231-7.92161 90.9136-9.63643 88.7531-9.63643L44.4374-9.63643C42.2335-9.63643 40.6239-7.92161 40.6239-5.84147C40.6239-3.76145 42.2335-2.10858 44.4374-2.10858ZM36.6518 23.6083L113.03 23.6083C126.507 23.6083 133.598 16.4804 133.598 3.17057L133.598-73.5116C133.598-86.8214 126.507-93.9492 113.03-93.9492L36.6518-93.9492C23.2182-93.9492 16.084-86.8583 16.084-73.5116L16.084 3.17057C16.084 16.5174 23.2182 23.6083 36.6518 23.6083ZM37.6298 11.2318C31.6386 11.2318 28.4171 8.21461 28.4171 1.97569L28.4171-72.3167C28.4171-78.5122 31.6386-81.5727 37.6298-81.5727L112.052-81.5727C117.97-81.5727 121.265-78.5122 121.265-72.3167L121.265 1.97569C121.265 8.21461 117.97 11.2318 112.052 11.2318Z"/>
  </g>
  <g id="Medium-L" transform="matrix(1 0 0 1 1672.31 1556)">
   <path d="M48.3663-71.7987C43.2992-71.7987 39.5061-67.8274 39.5061-62.3759C39.5061-53.7994 48.8152-46.5087 54.3727-42.8627C54.9157-42.4911 55.5167-42.1919 55.9278-42.1919C56.364-42.1919 56.8555-42.5266 57.4106-42.8627C62.9876-46.2454 72.2072-53.7994 72.2072-62.3759C72.2072-67.8274 68.4127-71.7987 63.2297-71.7987C60.0034-71.7987 57.3453-69.7812 55.8804-67.1087C54.401-69.7812 51.8152-71.7987 48.3663-71.7987ZM43.164-22.1966L104.367-22.1966C106.444-22.1966 107.967-23.8003 107.967-25.8321C107.967-27.8284 106.444-29.3991 104.367-29.3991L43.164-29.3991C41.0518-29.3991 39.5061-27.8284 39.5061-25.8321C39.5061-23.8003 41.0518-22.1966 43.164-22.1966ZM43.164-1.49339L88.0516-1.49339C90.1283-1.49339 91.674-3.08653 91.674-5.08283C91.674-7.06722 90.1283-8.71833 88.0516-8.71833L43.164-8.71833C41.0518-8.71833 39.5061-7.06722 39.5061-5.08283C39.5061-3.08653 41.0518-1.49339 43.164-1.49339ZM35.9773 23.0179L112.512 23.0179C125.628 23.0179 132.405 16.1958 132.405 3.2669L132.405-73.6C132.405-86.5288 125.628-93.3509 112.512-93.3509L35.9773-93.3509C22.9086-93.3509 16.084-86.5737 16.084-73.6L16.084 3.2669C16.084 16.2407 22.9086 23.0179 35.9773 23.0179ZM36.6008 12.2362C30.2527 12.2362 26.8183 8.98616 26.8183 2.40628L26.8183-72.7393C26.8183-79.2717 30.2527-82.5692 36.6008-82.5692L111.889-82.5692C118.147-82.5692 121.671-79.2717 121.671-72.7393L121.671 2.40628C121.671 8.98616 118.147 12.2362 111.889 12.2362Z"/>
  </g>
  <g id="Regular-L" transform="matrix(1 0 0 1 1376.38 1556)">
   <path d="M47.1129-72.7957C41.883-72.7957 38.048-68.7194 38.048-63.2257C38.048-54.7085 47.1559-47.209 53.3708-43.1254C53.9035-42.7535 54.4891-42.4595 54.8635-42.4595C55.263-42.4595 55.7178-42.7786 56.2783-43.1254C62.5132-46.9503 71.5206-54.7085 71.5206-63.2257C71.5206-68.7194 67.6579-72.7957 62.3225-72.7957C59.0755-72.7957 56.3387-70.7524 54.8107-67.9428C53.2576-70.7524 50.5986-72.7957 47.1129-72.7957ZM41.5032-21.9316L104.244-21.9316C106.211-21.9316 107.646-23.4469 107.646-25.3591C107.646-27.2462 106.211-28.7338 104.244-28.7338L41.5032-28.7338C39.5105-28.7338 38.048-27.2462 38.048-25.3591C38.048-23.4469 39.5105-21.9316 41.5032-21.9316ZM41.5032-0.690964L87.1366-0.690964C89.1041-0.690964 90.5665-2.2062 90.5665-4.0933C90.5665-5.9528 89.1041-7.52082 87.1366-7.52082L41.5032-7.52082C39.5105-7.52082 38.048-5.9528 38.048-4.0933C38.048-2.2062 39.5105-0.690964 41.5032-0.690964ZM35.0976 22.2479L111.836 22.2479C124.482 22.2479 130.85 15.8245 130.85 3.39255L130.85-73.7152C130.85-86.1471 124.482-92.5705 111.836-92.5705L35.0976-92.5705C22.5048-92.5705 16.084-86.2024 16.084-73.7152L16.084 3.39255C16.084 15.8799 22.5048 22.2479 35.0976 22.2479ZM35.2585 13.5463C28.4449 13.5463 24.7329 9.99253 24.7329 2.96792L24.7329-73.2905C24.7329-80.2623 28.4449-83.8689 35.2585-83.8689L111.675-83.8689C118.378-83.8689 122.201-80.2623 122.201-73.2905L122.201 2.96792C122.201 9.99253 118.378 13.5463 111.675 13.5463Z"/>
  </g>
  <g id="Light-L" transform="matrix(1 0 0 1 1080.5 1556)">
   <path d="M46.2159-73.33C40.9288-73.33 37.0556-69.2156 37.0556-63.7601C37.0556-54.8039 46.6215-46.8464 52.741-43.1636C53.1973-42.868 53.6875-42.5931 54.0428-42.5931C54.3851-42.5931 54.8208-42.8549 55.324-43.1636C61.3108-46.7976 70.9289-54.8039 70.9289-63.7601C70.9289-69.2156 67.009-73.33 61.6545-73.33C58.3312-73.33 55.5371-71.1532 54.0092-68.4581C52.4942-71.1532 49.7207-73.33 46.2159-73.33ZM39.8428-20.9964L103.48-20.9964C105.085-20.9964 106.234-22.2254 106.234-23.7368C106.234-25.2613 105.085-26.4435 103.48-26.4435L39.8428-26.4435C38.2509-26.4435 37.0556-25.2613 37.0556-23.7368C37.0556-22.2254 38.2509-20.9964 39.8428-20.9964ZM39.8428-0.137484L85.667-0.137484C87.2719-0.137484 88.4672-1.36642 88.4672-2.89094C88.4672-4.36868 87.2719-5.63136 85.667-5.63136L39.8428-5.63136C38.2509-5.63136 37.0556-4.36868 37.0556-2.89094C37.0556-1.36642 38.2509-0.137484 39.8428-0.137484ZM34.067 21.4273L111.206 21.4273C123.088 21.4273 129.189 15.2329 129.189 3.54525L129.189-73.8298C129.189-85.5173 123.088-91.7117 111.206-91.7117L34.067-91.7117C22.2186-91.7117 16.084-85.6108 16.084-73.8298L16.084 3.54525C16.084 15.3264 22.2186 21.4273 34.067 21.4273ZM34.2278 14.7678C26.7081 14.7678 22.7098 10.8705 22.7098 3.21606L22.7098-73.5005C22.7098-81.1211 26.7081-85.0522 34.2278-85.0522L111.045-85.0522C118.378-85.0522 122.563-81.1211 122.563-73.5005L122.563 3.21606C122.563 10.8705 118.378 14.7678 111.045 14.7678Z"/>
  </g>
  <g id="Thin-L" transform="matrix(1 0 0 1 784.884 1556)">
   <path d="M45.0296-74.0368C39.6667-74.0368 35.743-69.8719 35.743-64.4669C35.743-54.9301 45.9147-46.3668 51.908-43.2141C52.2633-43.0195 52.6273-42.7698 52.9574-42.7698C53.2239-42.7698 53.6345-42.9559 54.0619-43.2141C59.7206-46.5957 70.1464-54.9301 70.1464-64.4669C70.1464-69.8719 66.1508-74.0368 60.7711-74.0368C57.3468-74.0368 54.4769-71.6832 52.949-69.1396C51.4845-71.6832 48.5596-74.0368 45.0296-74.0368ZM37.6467-19.7595L102.471-19.7595C103.596-19.7595 104.366-20.61 104.366-21.5912C104.366-22.6362 103.596-23.4145 102.471-23.4145L37.6467-23.4145C36.5849-23.4145 35.743-22.6362 35.743-21.5912C35.743-20.61 36.5849-19.7595 37.6467-19.7595ZM37.6467 0.594538L83.7234 0.594538C84.8486 0.594538 85.6906-0.255741 85.6906-1.30071C85.6906-2.27356 84.8486-3.1324 83.7234-3.1324L37.6467-3.1324C36.5849-3.1324 35.743-2.27356 35.743-1.30071C35.743-0.255741 36.5849 0.594538 37.6467 0.594538ZM32.704 20.3419L110.373 20.3419C121.246 20.3419 126.993 14.4504 126.993 3.74719L126.993-73.9812C126.993-84.6843 121.246-90.5757 110.373-90.5757L32.704-90.5757C21.84-90.5757 16.084-84.8283 16.084-73.9812L16.084 3.74719C16.084 14.5944 21.84 20.3419 32.704 20.3419ZM32.8647 16.3832C24.4111 16.3832 20.0341 12.0316 20.0341 3.54425L20.0341-73.7781C20.0341-82.257 24.4111-86.6172 32.8647-86.6172L110.213-86.6172C118.378-86.6172 123.043-82.257 123.043-73.7781L123.043 3.54425C123.043 12.0316 118.378 16.3832 110.213 16.3832Z"/>
  </g>
  <g id="Ultralight-L" transform="matrix(1 0 0 1 488.735 1556)">
   <path d="M44.422-74.3988C39.0202-74.3988 35.0707-70.208 35.0707-64.8289C35.0707-54.9947 45.5527-46.1212 51.4814-43.24C51.785-43.097 52.0843-42.8602 52.4015-42.8602C52.6292-42.8602 53.0269-43.0076 53.4155-43.24C58.9061-46.4922 69.7456-54.9947 69.7456-64.8289C69.7456-70.208 65.7112-74.3988 60.3186-74.3988C56.8426-74.3988 53.9339-71.9548 52.406-69.4886C50.9673-71.9548 47.9649-74.3988 44.422-74.3988ZM36.5219-19.126L101.954-19.126C102.833-19.126 103.409-19.7825 103.409-20.4923C103.409-21.2916 102.833-21.8631 101.954-21.8631L36.5219-21.8631C35.7316-21.8631 35.0707-21.2916 35.0707-20.4923C35.0707-19.7825 35.7316-19.126 36.5219-19.126ZM36.5219 0.969475L82.7279 0.969475C83.6074 0.969475 84.2685 0.313143 84.2685-0.486206C84.2685-1.20045 83.6074-1.85245 82.7279-1.85245L36.5219-1.85245C35.7316-1.85245 35.0707-1.20045 35.0707-0.486206C35.0707 0.313143 35.7316 0.969475 36.5219 0.969475ZM32.0058 19.7859L109.947 19.7859C120.302 19.7859 125.869 14.0496 125.869 3.85063L125.869-74.0588C125.869-84.2577 120.302-89.9939 109.947-89.9939L32.0058-89.9939C21.6461-89.9939 16.084-84.4275 16.084-74.0588L16.084 3.85063C16.084 14.2194 21.6461 19.7859 32.0058 19.7859ZM32.1666 17.2107C23.2346 17.2107 18.6637 12.6263 18.6637 3.71234L18.6637-73.9203C18.6637-82.8388 23.2346-87.4187 32.1666-87.4187L109.786-87.4187C118.378-87.4187 123.289-82.8388 123.289-73.9203L123.289 3.71234C123.289 12.6263 118.378 17.2107 109.786 17.2107Z"/>
  </g>
  <g id="Black-M" transform="matrix(1 0 0 1 2872.54 1126)">
   <path d="M43.0019-59.101C39.8146-59.101 37.0582-56.5002 37.0582-52.4861C37.0582-45.4161 45.3634-40.5838 46.5756-39.9332C47.0181-39.6724 47.5231-39.4229 48.0063-39.4229C48.4951-39.4229 49.0405-39.7353 49.4256-39.9332C50.5987-40.4301 58.9378-45.4161 58.9378-52.4861C58.9378-56.5002 56.2958-59.101 52.9834-59.101C50.5546-59.101 48.8419-57.6129 48.0008-56.2194C47.2108-57.6129 45.5096-59.101 43.0019-59.101ZM40.6091-26.048L81.1737-26.048C83.1676-26.048 84.662-27.6047 84.662-29.5992C84.662-31.5308 83.1676-33.0307 81.1737-33.0307L40.6091-33.0307C38.5523-33.0307 37.0582-31.5308 37.0582-29.5992C37.0582-27.6047 38.5523-26.048 40.6091-26.048ZM40.6091-12.6407L71.9777-12.6407C73.9716-12.6407 75.4657-14.1403 75.4657-16.0719C75.4657-18.0609 73.9716-19.6231 71.9777-19.6231L40.6091-19.6231C38.5523-19.6231 37.0582-18.0609 37.0582-16.0719C37.0582-14.1403 38.5523-12.6407 40.6091-12.6407ZM31.6184 13.2031L90.1012 13.2031C102.194 13.2031 109.259 6.13902 109.259-5.93792L109.259-64.4591C109.259-76.536 102.194-83.6 90.1012-83.6L31.6184-83.6C19.5311-83.6 12.4609-76.5354 12.4609-64.4591L12.4609-5.93792C12.4609 6.13845 19.5311 13.2031 31.6184 13.2031ZM34.2553-4.14038C31.2643-4.14038 29.7989-5.36092 29.7989-8.60223L29.7989-61.7948C29.7989-65.0306 31.2643-66.2566 34.2553-66.2566L87.4643-66.2566C90.4564-66.2566 91.9207-65.0306 91.9207-61.7948L91.9207-8.60223C91.9207-5.36092 90.4564-4.14038 87.4643-4.14038Z"/>
  </g>
  <g id="Heavy-M" transform="matrix(1 0 0 1 2576.65 1126)">
   <path d="M41.5882-60.2641C38.2046-60.2641 35.4026-57.5369 35.4026-53.4605C35.4026-46.5608 43.3514-41.5593 45.4267-40.2617C45.8724-39.9842 46.3782-39.7372 46.8184-39.7372C47.2726-39.7372 47.775-40.042 48.1794-40.2617C50.2489-41.3663 58.1848-46.5608 58.1848-53.4605C58.1848-57.5369 55.4678-60.2641 51.9641-60.2641C49.5251-60.2641 47.724-58.7715 46.802-57.1778C45.9093-58.7715 44.1388-60.2641 41.5882-60.2641ZM38.837-25.9093L81.1792-25.9093C83.1111-25.9093 84.5536-27.4141 84.5536-29.3414C84.5536-31.211 83.1111-32.67 81.1792-32.67L38.837-32.67C36.8475-32.67 35.4026-31.211 35.4026-29.3414C35.4026-27.4141 36.8475-25.9093 38.837-25.9093ZM38.837-11.7311L71.1206-11.7311C73.0524-11.7311 74.4973-13.1923 74.4973-15.0619C74.4973-16.9728 73.0524-18.4941 71.1206-18.4941L38.837-18.4941C36.8475-18.4941 35.4026-16.9728 35.4026-15.0619C35.4026-13.1923 36.8475-11.7311 38.837-11.7311ZM30.7123 12.3925L89.37 12.3925C101.024 12.3925 107.621 5.79026 107.621-5.80967L107.621-64.5822C107.621-76.1821 101.024-82.7843 89.37-82.7843L30.7123-82.7843C19.075-82.7843 12.4609-76.1867 12.4609-64.5822L12.4609-5.80967C12.4609 5.79481 19.075 12.3925 30.7123 12.3925ZM32.7563-2.72358C29.3203-2.72358 27.5606-4.25965 27.5606-7.93568L27.5606-62.4562C27.5606-66.1158 29.3203-67.6683 32.7563-67.6683L87.326-67.6683C90.7528-67.6683 92.5217-66.1158 92.5217-62.4562L92.5217-7.93568C92.5217-4.25965 90.7528-2.72358 87.326-2.72358Z"/>
  </g>
  <g id="Bold-M" transform="matrix(1 0 0 1 2280.85 1126)">
   <path d="M40.0067-61.5651C36.4035-61.5651 33.5506-58.6965 33.5506-54.5505C33.5506-47.8413 41.1008-42.6505 44.1416-40.6292C44.5909-40.333 45.0974-40.0889 45.4895-40.0889C45.905-40.0889 46.3593-40.385 46.7853-40.6292C49.8577-42.4136 57.3425-47.8413 57.3425-54.5505C57.3425-58.6965 54.5415-61.5651 50.8239-61.5651C48.3735-61.5651 46.4733-60.0676 45.4609-58.2499C44.4534-60.0676 42.6053-61.5651 40.0067-61.5651ZM36.8548-25.7541L81.1854-25.7541C83.0478-25.7541 84.4324-27.2009 84.4324-29.0531C84.4324-30.8532 83.0478-32.2664 81.1854-32.2664L36.8548-32.2664C34.9403-32.2664 33.5506-30.8532 33.5506-29.0531C33.5506-27.2009 34.9403-25.7541 36.8548-25.7541ZM36.8548-10.7136L70.1617-10.7136C72.0242-10.7136 73.4139-12.1319 73.4139-13.9321C73.4139-15.7557 72.0242-17.2311 70.1617-17.2311L36.8548-17.2311C34.9403-17.2311 33.5506-15.7557 33.5506-13.9321C33.5506-12.1319 34.9403-10.7136 36.8548-10.7136ZM29.6986 11.4857L88.5521 11.4857C99.7145 11.4857 105.79 5.40013 105.79-5.66621L105.79-64.72C105.79-75.7863 99.7145-81.8718 88.5521-81.8718L29.6986-81.8718C18.5648-81.8718 12.4609-75.7965 12.4609-64.72L12.4609-5.66621C12.4609 5.4104 18.5648 11.4857 29.6986 11.4857ZM31.0794-1.13868C27.1457-1.13868 25.0567-3.02771 25.0567-7.19005L25.0567-63.1961C25.0567-67.3298 27.1457-69.2475 31.0794-69.2475L87.1714-69.2475C91.0845-69.2475 93.1941-67.3298 93.1941-63.1961L93.1941-7.19005C93.1941-3.02771 91.0845-1.13868 87.1714-1.13868Z"/>
  </g>
  <g id="Semibold-M" transform="matrix(1 0 0 1 1984.77 1126)">
   <path d="M38.9165-62.4621C35.1618-62.4621 32.2738-59.496 32.2738-55.3019C32.2738-48.724 39.5492-43.4028 43.2556-40.8825C43.7074-40.5734 44.2145-40.3313 44.5734-40.3313C44.9622-40.3313 45.3833-40.6215 45.8242-40.8825C49.588-43.1357 56.7618-48.724 56.7618-55.3019C56.7618-59.496 53.9029-62.4621 50.0379-62.4621C47.5796-62.4621 45.6111-60.9611 44.5363-58.989C43.4497-60.9611 41.5482-62.4621 38.9165-62.4621ZM35.4882-25.647L81.1896-25.647C83.0042-25.647 84.3488-27.054 84.3488-28.8543C84.3488-30.6066 83.0042-31.9883 81.1896-31.9883L35.4882-31.9883C33.6255-31.9883 32.2738-30.6066 32.2738-28.8543C32.2738-27.054 33.6255-25.647 35.4882-25.647ZM35.4882-10.0122L69.5007-10.0122C71.3153-10.0122 72.667-11.4009 72.667-13.1532C72.667-14.9166 71.3153-16.3605 69.5007-16.3605L35.4882-16.3605C33.6255-16.3605 32.2738-14.9166 32.2738-13.1532C32.2738-11.4009 33.6255-10.0122 35.4882-10.0122ZM28.9999 10.8605L87.9882 10.8605C98.812 10.8605 104.527 5.13117 104.527-5.56731L104.527-64.8149C104.527-75.5134 98.812-81.2427 87.9882-81.2427L28.9999-81.2427C18.2131-81.2427 12.4609-75.5276 12.4609-64.8149L12.4609-5.56731C12.4609 5.14539 18.2131 10.8605 28.9999 10.8605ZM29.9234-0.0460688C25.6465-0.0460688 23.3305-2.17842 23.3305-6.67602L23.3305-63.7062C23.3305-68.1667 25.6465-70.3361 29.9234-70.3361L87.0647-70.3361C91.3131-70.3361 93.6576-68.1667 93.6576-63.7062L93.6576-6.67602C93.6576-2.17842 91.3131-0.0460688 87.0647-0.0460688Z"/>
  </g>
  <g id="Medium-M" transform="matrix(1 0 0 1 1688.54 1126)">
   <path d="M38.0898-63.1421C34.2203-63.1421 31.3057-60.1022 31.3057-55.8717C31.3057-49.3934 38.3727-43.9733 42.5838-41.0746C43.0375-40.7558 43.545-40.5151 43.8787-40.5151C44.2473-40.5151 44.6433-40.8008 45.0955-41.0746C49.3835-43.6831 56.3214-49.3934 56.3214-55.8717C56.3214-60.1022 53.4187-63.1421 49.4419-63.1421C46.9776-63.1421 44.9574-61.6386 43.8353-59.5494C42.6886-61.6386 40.7467-63.1421 38.0898-63.1421ZM34.452-25.5659L81.1929-25.5659C82.9712-25.5659 84.2855-26.9425 84.2855-28.7036C84.2855-30.4196 82.9712-31.7773 81.1929-31.7773L34.452-31.7773C32.6286-31.7773 31.3057-30.4196 31.3057-28.7036C31.3057-26.9425 32.6286-25.5659 34.452-25.5659ZM34.452-9.4803L68.9995-9.4803C70.7778-9.4803 72.1007-10.8466 72.1007-12.5626C72.1007-14.2803 70.7778-15.7003 68.9995-15.7003L34.452-15.7003C32.6286-15.7003 31.3057-14.2803 31.3057-12.5626C31.3057-10.8466 32.6286-9.4803 34.452-9.4803ZM28.47 10.3865L87.5606 10.3865C98.1276 10.3865 103.57 4.92724 103.57-5.49231L103.57-64.8869C103.57-75.3064 98.1276-80.7657 87.5606-80.7657L28.47-80.7657C17.9464-80.7657 12.4609-75.3236 12.4609-64.8869L12.4609-5.49231C12.4609 4.94444 17.9464 10.3865 28.47 10.3865ZM29.0468 0.782398C24.5098 0.782398 22.0216-1.53445 22.0216-6.28625L22.0216-64.093C22.0216-68.8013 24.5098-71.1616 29.0468-71.1616L86.9839-71.1616C91.4864-71.1616 94.0091-68.8013 94.0091-64.093L94.0091-6.28625C94.0091-1.53445 91.4864 0.782398 86.9839 0.782398Z"/>
  </g>
  <g id="Regular-M" transform="matrix(1 0 0 1 1392.46 1126)">
   <path d="M37.0115-64.0292C32.9923-64.0292 30.0429-60.8929 30.0429-56.6149C30.0429-50.2664 36.8382-44.7173 41.7075-41.3251C42.1637-40.9936 42.6718-40.7549 42.9727-40.7549C43.3149-40.7549 43.6781-41.0347 44.145-41.3251C49.1168-44.3972 55.7471-50.2664 55.7471-56.6149C55.7471-60.8929 52.7872-64.0292 48.6645-64.0292C46.1924-64.0292 44.1047-62.5223 42.921-60.2804C41.6959-62.5223 39.7011-64.0292 37.0115-64.0292ZM33.1005-25.4601L81.1971-25.4601C82.928-25.4601 84.2028-26.7972 84.2028-28.5071C84.2028-30.1757 82.928-31.5022 81.1971-31.5022L33.1005-31.5022C31.3283-31.5022 30.0429-30.1757 30.0429-28.5071C30.0429-26.7972 31.3283-25.4601 33.1005-25.4601ZM33.1005-8.78656L68.3458-8.78656C70.0767-8.78656 71.362-10.1236 71.362-11.7923C71.362-13.4504 70.0767-14.8392 68.3458-14.8392L33.1005-14.8392C31.3283-14.8392 30.0429-13.4504 30.0429-11.7923C30.0429-10.1236 31.3283-8.78656 33.1005-8.78656ZM27.7789 9.76822L87.003 9.76822C97.235 9.76822 102.321 4.66124 102.321-5.3945L102.321-64.9809C102.321-75.0365 97.235-80.1435 87.003-80.1435L27.7789-80.1435C17.5986-80.1435 12.4609-75.0576 12.4609-64.9809L12.4609-5.3945C12.4609 4.68234 17.5986 9.76822 27.7789 9.76822ZM27.9035 1.86301C23.0271 1.86301 20.3144-0.69449 20.3144-5.77787L20.3144-64.5975C20.3144-69.629 23.0271-72.2383 27.9035-72.2383L86.8784-72.2383C91.7125-72.2383 94.4675-69.629 94.4675-64.5975L94.4675-5.77787C94.4675-0.69449 91.7125 1.86301 86.8784 1.86301Z"/>
  </g>
  <g id="Light-M" transform="matrix(1 0 0 1 1096.49 1126)">
   <path d="M36.2073-64.5083C32.1368-64.5083 29.1532-61.3378 29.1532-57.094C29.1532-50.352 36.3591-44.3922 41.1429-41.3594C41.5306-41.0962 41.9531-40.8747 42.2369-40.8747C42.5278-40.8747 42.8739-41.1032 43.2894-41.3594C48.0388-44.2603 55.2167-50.352 55.2167-57.094C55.2167-61.3378 52.2054-64.5083 48.0656-64.5083C45.5251-64.5083 43.386-62.8816 42.2023-60.7423C41.0115-62.8816 38.9141-64.5083 36.2073-64.5083ZM31.6118-24.6216L80.5127-24.6216C81.9185-24.6216 82.9366-25.7021 82.9366-27.0526C82.9366-28.3962 81.9185-29.4489 80.5127-29.4489L31.6118-29.4489C30.1989-29.4489 29.1532-28.3962 29.1532-27.0526C29.1532-25.7021 30.1989-24.6216 31.6118-24.6216ZM31.6118-8.29034L67.0282-8.29034C68.4341-8.29034 69.4798-9.37072 69.4798-10.7143C69.4798-12.0302 68.4341-13.1452 67.0282-13.1452L31.6118-13.1452C30.1989-13.1452 29.1532-12.0302 29.1532-10.7143C29.1532-9.37072 30.1989-8.29034 31.6118-8.29034ZM26.8549 9.03245L86.4383 9.03245C95.9859 9.03245 100.832 4.1308 100.832-5.2576L100.832-65.0835C100.832-74.4719 95.9859-79.3735 86.4383-79.3735L26.8549-79.3735C17.3419-79.3735 12.4609-74.5272 12.4609-65.0835L12.4609-5.2576C12.4609 4.18613 17.3419 9.03245 26.8549 9.03245ZM26.9795 2.9581C21.47 2.9581 18.5006 0.0926125 18.5006-5.5554L18.5006-64.7857C18.5006-70.399 21.47-73.2992 26.9795-73.2992L86.3138-73.2992C91.7125-73.2992 94.7926-70.399 94.7926-64.7857L94.7926-5.5554C94.7926 0.0926125 91.7125 2.9581 86.3138 2.9581Z"/>
  </g>
  <g id="Thin-M" transform="matrix(1 0 0 1 800.76 1126)">
   <path d="M35.1437-65.1419C31.0052-65.1419 27.9764-61.9261 27.9764-57.7277C27.9764-50.4651 35.7254-43.9622 40.3961-41.4047C40.6932-41.232 41.0026-41.033 41.2638-41.033C41.4867-41.033 41.8103-41.1937 42.1579-41.4047C46.6131-44.0793 54.5151-50.4651 54.5151-57.7277C54.5151-61.9261 51.436-65.1419 47.2736-65.1419C44.6425-65.1419 42.4356-63.3569 41.2518-61.3533C40.1062-63.3569 37.8731-65.1419 35.1437-65.1419ZM29.6429-23.5127L79.6075-23.5127C80.5833-23.5127 81.2619-24.2537 81.2619-25.129C81.2619-26.0426 80.5833-26.7332 79.6075-26.7332L29.6429-26.7332C28.7053-26.7332 27.9764-26.0426 27.9764-25.129C27.9764-24.2537 28.7053-23.5127 29.6429-23.5127ZM29.6429-7.63404L65.2857-7.63404C66.2615-7.63404 66.9905-8.37494 66.9905-9.28856C66.9905-10.1518 66.2615-10.9048 65.2857-10.9048L29.6429-10.9048C28.7053-10.9048 27.9764-10.1518 27.9764-9.28856C27.9764-8.37494 28.7053-7.63404 29.6429-7.63404ZM25.6329 8.05933L85.6915 8.05933C94.3339 8.05933 98.8635 3.42925 98.8635-5.07655L98.8635-65.2193C98.8635-73.7251 94.3339-78.3551 85.6915-78.3551L25.6329-78.3551C17.0025-78.3551 12.4609-73.8256 12.4609-65.2193L12.4609-5.07655C12.4609 3.52984 17.0025 8.05933 25.6329 8.05933ZM25.7574 4.40646C19.4106 4.40646 16.1018 1.13362 16.1018-5.26116L16.1018-65.0346C16.1018-71.4174 19.4106-74.7023 25.7574-74.7023L85.567-74.7023C91.7125-74.7023 95.2225-71.4174 95.2225-65.0346L95.2225-5.26116C95.2225 1.13362 91.7125 4.40646 85.567 4.40646Z"/>
  </g>
  <g id="Ultralight-M" transform="matrix(1 0 0 1 504.553 1126)">
   <path d="M34.5989-65.4664C30.4257-65.4664 27.3736-62.2275 27.3736-58.0523C27.3736-50.523 35.4009-43.742 40.0135-41.4279C40.2643-41.3015 40.5158-41.1142 40.7654-41.1142C40.9535-41.1142 41.2655-41.24 41.5783-41.4279C45.8828-43.9865 54.1558-50.523 54.1558-58.0523C54.1558-62.2275 51.0419-65.4664 46.8679-65.4664C44.1905-65.4664 41.9487-63.6003 40.765-61.6663C39.6426-63.6003 37.3399-65.4664 34.5989-65.4664ZM28.6345-22.9448L79.1439-22.9448C79.8994-22.9448 80.4041-23.5119 80.4041-24.1437C80.4041-24.8371 79.8994-25.3422 79.1439-25.3422L28.6345-25.3422C27.9403-25.3422 27.3736-24.8371 27.3736-24.1437C27.3736-23.5119 27.9403-22.9448 28.6345-22.9448ZM28.6345-7.29789L64.3932-7.29789C65.1487-7.29789 65.7155-7.8649 65.7155-8.55831C65.7155-9.18971 65.1487-9.75726 64.3932-9.75726L28.6345-9.75726C27.9403-9.75726 27.3736-9.18971 27.3736-8.55831C27.3736-7.8649 27.9403-7.29789 28.6345-7.29789ZM25.0069 7.56091L85.309 7.56091C93.4877 7.56091 97.855 3.06993 97.855-4.98381L97.855-65.2889C97.855-73.3426 93.4877-77.8335 85.309-77.8335L25.0069-77.8335C16.8286-77.8335 12.4609-73.4663 12.4609-65.2889L12.4609-4.98381C12.4609 3.19369 16.8286 7.56091 25.0069 7.56091ZM25.1315 5.1483C18.3558 5.1483 14.8731 1.66682 14.8731-5.11046L14.8731-65.1621C14.8731-71.939 18.3558-75.4209 25.1315-75.4209L85.1845-75.4209C91.7125-75.4209 95.4427-71.939 95.4427-65.1621L95.4427-5.11046C95.4427 1.66682 91.7125 5.1483 85.1845 5.1483Z"/>
  </g>
  <g id="Black-S" transform="matrix(1 0 0 1 2885.5 696)">
   <path d="M34.082-53.6133C31.6406-53.6133 29.4922-51.6113 29.4922-48.4863C29.4922-42.8711 36.1328-39.1113 36.8164-38.8184C37.1582-38.623 37.5488-38.4277 37.9395-38.4277C38.3301-38.4277 38.7695-38.6719 39.0625-38.8184C39.6973-39.0137 46.3867-42.8711 46.3867-48.4863C46.3867-51.6113 44.3359-53.6133 41.7969-53.6133C39.8926-53.6133 38.5742-52.4414 37.9395-51.416C37.3535-52.4414 36.0352-53.6133 34.082-53.6133ZM32.2754-28.0273L63.5742-28.0273C65.1367-28.0273 66.3086-29.248 66.3086-30.8105C66.3086-32.3242 65.1367-33.4961 63.5742-33.4961L32.2754-33.4961C30.6641-33.4961 29.4922-32.3242 29.4922-30.8105C29.4922-29.248 30.6641-28.0273 32.2754-28.0273ZM32.2754-17.7734L56.5918-17.7734C58.1543-17.7734 59.3262-18.9453 59.3262-20.459C59.3262-22.0215 58.1543-23.2422 56.5918-23.2422L32.2754-23.2422C30.6641-23.2422 29.4922-22.0215 29.4922-20.459C29.4922-18.9453 30.6641-17.7734 32.2754-17.7734ZM25 2.92969L70.8008 2.92969C80.3711 2.92969 86.0352-2.73438 86.0352-12.3047L86.0352-58.1055C86.0352-67.6758 80.3711-73.3398 70.8008-73.3398L25-73.3398C15.4297-73.3398 9.76562-67.6758 9.76562-58.1055L9.76562-12.3047C9.76562-2.73438 15.4297 2.92969 25 2.92969ZM27.2461-11.2305C25-11.2305 23.9258-12.1094 23.9258-14.5508L23.9258-55.8594C23.9258-58.3008 25-59.1797 27.2461-59.1797L68.5547-59.1797C70.8008-59.1797 71.875-58.3008 71.875-55.8594L71.875-14.5508C71.875-12.1094 70.8008-11.2305 68.5547-11.2305Z"/>
  </g>
  <g id="Heavy-S" transform="matrix(1 0 0 1 2589.39 696)">
   <path d="M32.9757-54.5468C30.3729-54.5468 28.1899-52.4411 28.1899-49.2584C28.1899-43.8392 34.4733-39.9872 35.906-39.095C36.2593-38.8766 36.6614-38.6813 37.0175-38.6813C37.3851-38.6813 37.7899-38.9254 38.106-39.095C39.536-39.8319 45.8105-43.8392 45.8105-49.2584C45.8105-52.4411 43.7021-54.5468 41.0017-54.5468C39.0974-54.5468 37.7099-53.3864 37.006-52.1766C36.3278-53.3864 34.9634-54.5468 32.9757-54.5468ZM30.9501-28.0158L63.6664-28.0158C65.2174-28.0158 66.3778-29.225 66.3778-30.7759C66.3778-32.2781 65.2174-33.45 63.6664-33.45L30.9501-33.45C29.3503-33.45 28.1899-32.2781 28.1899-30.7759C28.1899-29.225 29.3503-28.0158 30.9501-28.0158ZM30.9501-17.0589L56.0271-17.0589C57.5781-17.0589 58.7384-18.2308 58.7384-19.733C58.7384-21.2724 57.5781-22.4931 56.0271-22.4931L30.9501-22.4931C29.3503-22.4931 28.1899-21.2724 28.1899-19.733C28.1899-18.2308 29.3503-17.0589 30.9501-17.0589ZM24.3431 2.33042L70.2476 2.33042C79.5298 2.33042 84.8251-2.96487 84.8251-12.2125L84.8251-58.1977C84.8251-67.4453 79.5298-72.7405 70.2476-72.7405L24.3431-72.7405C15.0724-72.7405 9.76562-67.4453 9.76562-58.1977L9.76562-12.2125C9.76562-2.96487 15.0724 2.33042 24.3431 2.33042ZM26.0821-10.1587C23.5364-10.1587 22.2432-11.2681 22.2432-14.0092L22.2432-56.401C22.2432-59.1306 23.5364-60.2515 26.0821-60.2515L68.5086-60.2515C71.0543-60.2515 72.3475-59.1306 72.3475-56.401L72.3475-14.0092C72.3475-11.2681 71.0543-10.1587 68.5086-10.1587Z"/>
  </g>
  <g id="Bold-S" transform="matrix(1 0 0 1 2293.36 696)">
   <path d="M31.7382-55.5908C28.9551-55.5908 26.7334-53.3691 26.7334-50.1221C26.7334-44.9219 32.6172-40.9668 34.8877-39.4043C35.2539-39.1602 35.6689-38.9648 35.9864-38.9648C36.3282-38.9648 36.6943-39.209 37.0362-39.4043C39.3555-40.7471 45.166-44.9219 45.166-50.1221C45.166-53.3691 42.9932-55.5908 40.1123-55.5908C38.208-55.5908 36.7432-54.4434 35.962-53.0273C35.1807-54.4434 33.7646-55.5908 31.7382-55.5908ZM29.4678-28.0029L63.7695-28.0029C65.3076-28.0029 66.4551-29.1992 66.4551-30.7373C66.4551-32.2266 65.3076-33.3984 63.7695-33.3984L29.4678-33.3984C27.8809-33.3984 26.7334-32.2266 26.7334-30.7373C26.7334-29.1992 27.8809-28.0029 29.4678-28.0029ZM29.4678-16.2597L55.3955-16.2597C56.9336-16.2597 58.0811-17.4316 58.0811-18.9209C58.0811-20.4346 56.9336-21.6553 55.3955-21.6553L29.4678-21.6553C27.8809-21.6553 26.7334-20.4346 26.7334-18.9209C26.7334-17.4316 27.8809-16.2597 29.4678-16.2597ZM23.6084 1.66016L69.6289 1.66016C78.5888 1.66016 83.4717-3.22266 83.4717-12.1094L83.4717-58.3008C83.4717-67.1875 78.5888-72.0703 69.6289-72.0703L23.6084-72.0703C14.6729-72.0703 9.76562-67.1875 9.76562-58.3008L9.76562-12.1094C9.76562-3.22266 14.6729 1.66016 23.6084 1.66016ZM24.7803-8.95997C21.8994-8.95997 20.3614-10.3272 20.3614-13.4033L20.3614-57.0069C20.3614-60.0586 21.8994-61.4502 24.7803-61.4502L68.4571-61.4502C71.3379-61.4502 72.876-60.0586 72.876-57.0069L72.876-13.4033C72.876-10.3272 71.3379-8.95997 68.4571-8.95997Z"/>
  </g>
  <g id="Semibold-S" transform="matrix(1 0 0 1 1997.12 696)">
   <path d="M30.8851-56.3107C27.9775-56.3107 25.7292-54.009 25.7292-50.7175C25.7292-45.6684 31.3375-41.6422 34.1857-39.6176C34.5607-39.3557 34.9847-39.1604 35.2754-39.1604C35.5994-39.1604 35.9389-39.4045 36.2986-39.6176C39.2311-41.3781 44.7217-45.6684 44.7217-50.7175C44.7217-54.009 42.5044-56.3107 39.4991-56.3107C37.5948-56.3107 36.0766-55.1721 35.2421-53.6139C34.3897-55.1721 32.9382-56.3107 30.8851-56.3107ZM28.4458-27.994L63.8406-27.994C65.3698-27.994 66.5084-29.1814 66.5084-30.7107C66.5084-32.191 65.3698-33.3629 63.8406-33.3629L28.4458-33.3629C26.8678-33.3629 25.7292-32.191 25.7292-30.7107C25.7292-29.1814 26.8678-27.994 28.4458-27.994ZM28.4458-15.7088L54.96-15.7088C56.4893-15.7088 57.6278-16.8807 57.6278-18.361C57.6278-19.857 56.4893-21.0777 54.96-21.0777L28.4458-21.0777C26.8678-21.0777 25.7292-19.857 25.7292-18.361C25.7292-16.8807 26.8678-15.7088 28.4458-15.7088ZM23.1019 1.19805L69.2023 1.19805C77.9401 1.19805 82.5386-3.40039 82.5386-12.0383L82.5386-58.3719C82.5386-67.0098 77.9401-71.6082 69.2023-71.6082L23.1019-71.6082C14.3974-71.6082 9.76562-67.0098 9.76562-58.3719L9.76562-12.0383C9.76562-3.40039 14.3974 1.19805 23.1019 1.19805ZM23.8827-8.1335C20.7708-8.1335 19.0639-9.67842 19.0639-12.9857L19.0639-57.4245C19.0639-60.6984 20.7708-62.2767 23.8827-62.2767L68.4215-62.2767C71.5334-62.2767 73.2404-60.6984 73.2404-57.4245L73.2404-12.9857C73.2404-9.67842 71.5334-8.1335 68.4215-8.1335Z"/>
  </g>
  <g id="Medium-S" transform="matrix(1 0 0 1 1700.76 696)">
   <path d="M30.2383-56.8565C27.2363-56.8565 24.9678-54.4942 24.9678-51.1689C24.9678-46.2344 30.3672-42.1543 33.6533-39.7793C34.0351-39.5039 34.4658-39.3086 34.7363-39.3086C35.0469-39.3086 35.3662-39.5527 35.7393-39.7793C39.1367-41.8565 44.3848-46.2344 44.3848-51.1689C44.3848-54.4942 42.1338-56.8565 39.0342-56.8565C37.1299-56.8565 35.5713-55.7246 34.6963-54.0586C33.79-55.7246 32.3115-56.8565 30.2383-56.8565ZM27.6709-27.9873L63.8945-27.9873C65.417-27.9873 66.5489-29.168 66.5489-30.6905C66.5489-32.1641 65.417-33.336 63.8945-33.336L27.6709-33.336C26.0997-33.336 24.9678-32.1641 24.9678-30.6905C24.9678-29.168 26.0997-27.9873 27.6709-27.9873ZM27.6709-15.291L54.6299-15.291C56.1524-15.291 57.2842-16.4629 57.2842-17.9365C57.2842-19.419 56.1524-20.6397 54.6299-20.6397L27.6709-20.6397C26.0997-20.6397 24.9678-19.419 24.9678-17.9365C24.9678-16.4629 26.0997-15.291 27.6709-15.291ZM22.7178 0.847657L68.8789 0.847657C77.4482 0.847657 81.8311-3.53516 81.8311-11.9844L81.8311-58.4258C81.8311-66.875 77.4482-71.2578 68.8789-71.2578L22.7178-71.2578C14.1885-71.2578 9.76562-66.875 9.76562-58.4258L9.76562-11.9844C9.76562-3.53516 14.1885 0.847657 22.7178 0.847657ZM23.2022-7.50684C19.915-7.50684 18.0801-9.18653 18.0801-12.669L18.0801-57.7412C18.0801-61.1836 19.915-62.9033 23.2022-62.9033L68.3946-62.9033C71.6816-62.9033 73.5166-61.1836 73.5166-57.7412L73.5166-12.669C73.5166-9.18653 71.6816-7.50684 68.3946-7.50684Z"/>
  </g>
  <g id="Regular-S" transform="matrix(1 0 0 1 1404.51 696)">
   <path d="M29.3945-57.5684C26.2695-57.5684 23.9746-55.127 23.9746-51.7578C23.9746-46.9727 29.1016-42.8223 32.959-39.9902C33.3496-39.6973 33.7891-39.502 34.0332-39.502C34.3262-39.502 34.6191-39.7461 35.0098-39.9902C39.0137-42.4805 43.9453-46.9727 43.9453-51.7578C43.9453-55.127 41.6504-57.5684 38.4277-57.5684C36.5234-57.5684 34.9121-56.4453 33.9844-54.6387C33.0078-56.4453 31.4941-57.5684 29.3945-57.5684ZM26.6602-27.9785L63.9648-27.9785C65.4785-27.9785 66.6016-29.1504 66.6016-30.6641C66.6016-32.1289 65.4785-33.3008 63.9648-33.3008L26.6602-33.3008C25.0977-33.3008 23.9746-32.1289 23.9746-30.6641C23.9746-29.1504 25.0977-27.9785 26.6602-27.9785ZM26.6602-14.7461L54.1992-14.7461C55.7129-14.7461 56.8359-15.918 56.8359-17.3828C56.8359-18.8477 55.7129-20.0684 54.1992-20.0684L26.6602-20.0684C25.0977-20.0684 23.9746-18.8477 23.9746-17.3828C23.9746-15.918 25.0977-14.7461 26.6602-14.7461ZM22.2168 0.390625L68.457 0.390625C76.8066 0.390625 80.9082-3.71094 80.9082-11.9141L80.9082-58.4961C80.9082-66.6992 76.8066-70.8008 68.457-70.8008L22.2168-70.8008C13.916-70.8008 9.76562-66.6992 9.76562-58.4961L9.76562-11.9141C9.76562-3.71094 13.916 0.390625 22.2168 0.390625ZM22.3145-6.68945C18.7988-6.68945 16.7969-8.54492 16.7969-12.2559L16.7969-58.1543C16.7969-61.8164 18.7988-63.7207 22.3145-63.7207L68.3594-63.7207C71.875-63.7207 73.877-61.8164 73.877-58.1543L73.877-12.2559C73.877-8.54492 71.875-6.68945 68.3594-6.68945Z"/>
  </g>
  <g id="Light-S" transform="matrix(1 0 0 1 1108.46 696)">
   <path d="M28.6831-57.9922C25.5127-57.9922 23.1875-55.5205 23.1875-52.1816C23.1875-47.0484 28.6778-42.5347 32.4595-40.0205C32.7895-39.7881 33.1534-39.6079 33.3823-39.6079C33.6299-39.6079 33.9077-39.8066 34.253-40.0205C38.0601-42.3594 43.4761-47.0484 43.4761-52.1816C43.4761-55.5205 41.1358-57.9922 37.8979-57.9922C35.9331-57.9922 34.2764-56.7632 33.3487-55.0474C32.4023-56.7632 30.7978-57.9922 28.6831-57.9922ZM25.3433-27.2368L63.3594-27.2368C64.5854-27.2368 65.4815-28.1817 65.4815-29.3775C65.4815-30.5547 64.5854-31.4844 63.3594-31.4844L25.3433-31.4844C24.0987-31.4844 23.1875-30.5547 23.1875-29.3775C23.1875-28.1817 24.0987-27.2368 25.3433-27.2368ZM25.3433-14.3071L53.0337-14.3071C54.2598-14.3071 55.1709-15.252 55.1709-16.4292C55.1709-17.5913 54.2598-18.5699 53.0337-18.5699L25.3433-18.5699C24.0987-18.5699 23.1875-17.5913 23.1875-16.4292C23.1875-15.252 24.0987-14.3071 25.3433-14.3071ZM21.3994-0.26025L67.9575-0.26025C75.7016-0.26025 79.5913-4.18017 79.5913-11.793L79.5913-58.5869C79.5913-66.1997 75.7016-70.1196 67.9575-70.1196L21.3994-70.1196C13.689-70.1196 9.76562-66.23 9.76562-58.5869L9.76562-11.793C9.76562-4.1499 13.689-0.26025 21.3994-0.26025ZM21.4971-5.72071C17.4214-5.72071 15.1924-7.84864 15.1924-12.0591L15.1924-58.3208C15.1924-62.4975 17.4214-64.6592 21.4971-64.6592L67.8599-64.6592C71.875-64.6592 74.1646-62.4975 74.1646-58.3208L74.1646-12.0591C74.1646-7.84864 71.875-5.72071 67.8599-5.72071Z"/>
  </g>
  <g id="Thin-S" transform="matrix(1 0 0 1 812.615 696)">
   <path d="M27.7422-58.5527C24.5117-58.5527 22.1465-56.041 22.1465-52.7422C22.1465-47.1484 28.1172-42.1543 31.7989-40.0606C32.0488-39.9082 32.3126-39.748 32.5215-39.748C32.709-39.748 32.9668-39.8867 33.252-40.0606C36.7989-42.1992 42.8555-47.1484 42.8555-52.7422C42.8555-56.041 40.4551-58.5527 37.1973-58.5527C35.1524-58.5527 33.4356-57.1836 32.5079-55.5879C31.6016-57.1836 29.877-58.5527 27.7422-58.5527ZM23.6016-26.2558L62.5586-26.2558C63.4043-26.2558 64-26.9004 64-27.6758C64-28.4727 63.4043-29.0821 62.5586-29.0821L23.6016-29.0821C22.7774-29.0821 22.1465-28.4727 22.1465-27.6758C22.1465-26.9004 22.7774-26.2558 23.6016-26.2558ZM23.6016-13.7266L51.4922-13.7266C52.3379-13.7266 52.9688-14.3711 52.9688-15.168C52.9688-15.9297 52.3379-16.5879 51.4922-16.5879L23.6016-16.5879C22.7774-16.5879 22.1465-15.9297 22.1465-15.168C22.1465-14.3711 22.7774-13.7266 23.6016-13.7266ZM20.3184-1.12108L67.2969-1.12108C74.2402-1.12108 77.8497-4.80077 77.8497-11.6328L77.8497-58.7071C77.8497-65.5391 74.2402-69.2187 67.2969-69.2187L20.3184-69.2187C13.3887-69.2187 9.76562-65.6094 9.76562-58.7071L9.76562-11.6328C9.76562-4.73046 13.3887-1.12108 20.3184-1.12108ZM20.416-4.43947C15.5996-4.43947 13.0703-6.92775 13.0703-11.7988L13.0703-58.541C13.0703-63.3984 15.5996-65.9004 20.416-65.9004L67.1993-65.9004C71.875-65.9004 74.5449-63.3984 74.5449-58.541L74.5449-11.7988C74.5449-6.92775 71.875-4.43947 67.1993-4.43947Z"/>
  </g>
  <g id="Ultralight-S" transform="matrix(1 0 0 1 516.35 696)">
   <path d="M27.2603-58.8398C23.999-58.8398 21.6133-56.3076 21.6133-53.0293C21.6133-47.1997 27.8301-41.9595 31.4605-40.0811C31.6694-39.9697 31.8819-39.8198 32.0806-39.8198C32.2373-39.8198 32.4849-39.9277 32.7393-40.0811C36.1529-42.1172 42.5376-47.1997 42.5376-53.0293C42.5376-56.3076 40.1065-58.8398 36.8384-58.8398C34.7525-58.8398 33.0049-57.3989 32.0772-55.8647C31.1914-57.3989 29.4053-58.8398 27.2603-58.8398ZM22.7095-25.7534L62.1485-25.7534C62.7993-25.7534 63.2412-26.2442 63.2412-26.8042C63.2412-27.4063 62.7993-27.8516 62.1485-27.8516L22.7095-27.8516C22.1006-27.8516 21.6133-27.4063 21.6133-26.8042C21.6133-26.2442 22.1006-25.7534 22.7095-25.7534ZM22.7095-13.4292L50.7027-13.4292C51.3535-13.4292 51.8409-13.9199 51.8409-14.522C51.8409-15.0786 51.3535-15.5728 50.7027-15.5728L22.7095-15.5728C22.1006-15.5728 21.6133-15.0786 21.6133-14.522C21.6133-13.9199 22.1006-13.4292 22.7095-13.4292ZM19.7647-1.562L66.9585-1.562C73.4917-1.562 76.9576-5.11864 76.9576-11.5508L76.9576-58.7686C76.9576-65.2007 73.4917-68.7573 66.9585-68.7573L19.7647-68.7573C13.2349-68.7573 9.76562-65.2915 9.76562-58.7686L9.76562-11.5508C9.76562-5.02782 13.2349-1.562 19.7647-1.562ZM19.8623-3.78323C14.6665-3.78323 11.9834-6.45607 11.9834-11.6655L11.9834-58.6538C11.9834-63.8598 14.6665-66.5361 19.8623-66.5361L66.8609-66.5361C71.875-66.5361 74.7397-63.8598 74.7397-58.6538L74.7397-11.6655C74.7397-6.45607 71.875-3.78323 66.8609-3.78323Z"/>
  </g>
 </g>
</svg>
